<svg width="630" height="188" viewBox="0 0 630 188" fill="none" xmlns="http://www.w3.org/2000/svg">
<path d="M125.521 51.4356C115.743 53.1816 111.261 60.8932 110.243 64.5308C109.224 66.5678 107.799 71.253 110.243 73.6974C113.298 76.7529 116.354 78.0624 125.521 76.3164C132.854 74.9196 135.851 67.8773 136.433 64.5308C136.87 59.4382 135.298 49.6896 125.521 51.4356Z" fill="#F5A524"/>
<path d="M76.1957 83.3005C72.3544 85.7449 77.7962 89.2661 80.9972 90.7211C69.2115 98.1417 68.7752 122.149 78.3783 123.459C87.9814 124.768 113.735 123.022 116.354 111.237C118.449 101.808 111.407 91.5941 107.624 87.6655C110.825 86.2105 114.695 81.9037 104.569 76.3164C91.9099 69.3323 80.9972 80.245 76.1957 83.3005Z" fill="#F5A524"/>
<path d="M362.543 136.118C361.088 122.44 359.051 94.7369 362.543 93.3401C366.908 91.5941 431.511 88.102 436.312 87.229C437.993 86.9234 439.353 94.535 440.467 104.689C441.556 98.4326 444.519 85.7449 447.661 85.0465C451.59 84.1735 463.812 74.5704 465.558 75.0069C466.955 75.3561 470.214 75.1524 471.669 75.0069C472.078 77.049 473.938 81.6135 478.181 84.4808C474.264 88.3069 470.534 97.094 486.947 101.634C487.82 103.962 488.693 109.753 485.201 114.292C475.598 114.874 454.384 118.308 446.352 127.387C444.772 129.174 443.58 130.377 442.702 131.125C443.516 142.546 444.121 152.009 444.606 153.141C445.915 156.197 486.51 184.133 488.256 184.57C490.002 185.006 501.788 189.808 517.066 190.681C532.343 191.554 541.51 194.609 554.169 188.498C566.827 182.387 569.01 180.641 572.502 172.347C574.975 160.707 576.256 134.372 561.589 122.149C561.153 111.964 556.788 89.0623 542.82 78.9354C528.851 68.8085 532.925 70.0598 536.708 71.9513H563.335L566.827 64.9673C583.851 62.7847 619.295 65.9276 624.882 95.9591C631.867 133.499 619.644 181.078 618.335 185.879C617.025 190.681 592.145 281.474 590.835 290.64C589.787 297.974 492.621 290.786 444.169 286.275C441.259 273.326 445.042 237.998 483.455 200.284C473.852 197.228 449.233 184.133 427.582 156.197C405.932 128.26 388.879 128.26 383.059 131.752L373.456 143.538L362.543 136.118Z" fill="#E9E6C2"/>
<path d="M314.964 152.705C299.948 172.26 298.522 219.927 299.686 241.315L392.225 257.466C386.987 250.045 399.646 246.794 397.027 245.244C417.543 255.283 417.979 261.395 445.042 257.466C465.122 206.831 489.566 203.339 482.582 198.101C460.233 194.958 429.91 159.252 417.543 141.792C409.104 135.536 390.392 124.07 383.059 128.261C373.892 133.499 379.13 144.411 370.837 141.792C359.051 130.88 345.956 123.022 337.226 123.022C328.496 123.022 333.734 128.261 314.964 152.705Z" fill="white"/>
<path d="M444.606 154.451C443.558 153.752 442.423 138.446 441.987 130.88V129.57C446.061 127.387 455.344 122.237 459.884 119.094C465.558 115.165 475.161 115.602 479.963 114.729C484.764 113.856 486.947 115.602 490.439 119.094C493.931 122.586 506.59 127.824 516.193 130.88C525.796 133.935 541.947 130.88 548.494 129.57C553.732 128.522 558.825 123.604 560.716 121.276C563.917 124.477 570.669 131.578 572.065 134.372C573.462 137.165 574.102 154.451 574.248 162.744C572.647 169.146 567.7 182.824 560.716 186.316C551.986 190.681 543.256 190.244 537.582 190.681C531.907 191.117 509.645 190.681 501.352 188.935C494.717 187.538 488.984 184.861 486.947 183.697L464.685 168.419C458.429 164.054 445.654 155.149 444.606 154.451Z" fill="white"/>
<path d="M188.814 100.324C189.862 90.1973 186.632 83.5915 184.885 81.5545C193.616 77.3641 210.348 66.7133 217.623 61.9117C237.703 8.22164 271.75 2.54713 280.917 0.801106C290.083 -0.944913 324.131 18.2613 321.075 28.3009C318.631 36.3326 322.094 44.1606 324.131 47.0706C307.98 50.9992 283.972 65.8403 278.734 86.7926C273.496 107.745 242.504 139.173 231.155 131.316C222.076 125.03 199.145 108.036 188.814 100.324Z" fill="#24DE85"/>
<path d="M173.973 111.237C142.545 96.5703 125.957 110.946 121.592 119.967C121.592 130.792 127.121 139.028 129.886 141.792C120.108 142.491 123.775 155.76 126.83 162.308C125.434 165.451 131.486 177.586 134.687 183.26C160.179 189.546 179.938 175.985 186.632 168.419C171.79 143.102 185.759 148.34 181.393 137.427C177.901 128.697 174.991 116.329 173.973 111.237Z" fill="#F5A524"/>
<path d="M36.9103 50.1261C17.7041 59.5546 20.1777 68.8959 23.8152 72.3879C22.7675 75.8799 37.6379 87.5201 45.204 92.9036L53.9341 88.1021C47.6484 81.8164 53.0611 78.499 56.5531 77.6259C43.6326 73.4355 38.0744 57.5467 36.9103 50.1261Z" fill="#F199C3"/>
<path d="M63.1007 44.0151C56.4658 41.9199 49.278 44.8881 46.5135 46.6341C55.942 48.7293 61.5002 67.0043 63.1007 75.8799L68.3387 73.6974L73.1403 78.499C77.6799 78.1497 79.9789 75.1524 80.5609 73.6974L77.0688 68.4593C83.0053 67.4117 83.3254 61.6208 82.7434 58.8562C83.791 55.015 87.836 53.7637 89.7275 53.6182C90.3095 52.0177 90.4259 48.3801 86.2354 46.6341C80.9974 44.4516 79.2514 51.8722 77.0688 46.6341C74.8863 41.3961 80.9974 38.3405 74.4498 37.4675C69.2117 36.7691 64.7012 41.5415 63.1007 44.0151Z" fill="#F199C3"/>
<path d="M509.498 171.867C509.556 172.387 509.979 172.61 510.18 173.043C511.11 175.045 511.733 177.441 512.356 179.572C513.303 182.807 512.893 186.542 512.893 189.888" stroke="#006FEE" stroke-width="4.36505" stroke-linecap="round"/>
<path d="M517.072 169.778C517.117 170.004 517.207 170.138 517.362 170.315C518.214 171.288 518.756 172.476 519.277 173.652C520.307 175.974 521.047 178.505 521.512 181.008C522.041 183.864 521.467 186.793 522.034 189.627" stroke="#006FEE" stroke-width="4.36505" stroke-linecap="round"/>
<path d="M522.295 166.383C526.21 170.298 529.69 174.998 530.914 180.486C531.578 183.465 531.436 192.679 531.436 189.627" stroke="#006FEE" stroke-width="4.36505" stroke-linecap="round"/>
<path d="M525.951 161.943C528.397 164.253 531.525 165.657 533.656 168.356C535.951 171.264 538.351 174.155 540.287 177.323C542.327 180.662 543.188 183.889 543.188 187.799" stroke="#006FEE" stroke-width="4.36505" stroke-linecap="round"/>
<path d="M527.518 160.376C527.518 157.919 528.828 155.37 530.13 153.325C532.018 150.357 533.854 147.376 535.615 144.343C536.543 142.744 541.173 133.336 543.45 135.043" stroke="#006FEE" stroke-width="4.36505" stroke-linecap="round"/>
<path d="M530.13 154.892C529.836 154.892 531.23 154.87 531.436 154.892C534.246 155.181 537.524 156.859 539.735 158.606C543.202 161.345 546.184 166.162 548.005 170.17C549.301 173.021 550.904 176.158 551.285 179.296C551.492 181.011 551.546 182.679 551.546 184.404" stroke="#006FEE" stroke-width="4.36505" stroke-linecap="round"/>
<path d="M534.831 147.318C538.673 148.342 542.731 149.31 546.09 151.511C548.689 153.213 551.255 154.881 553.635 156.894C556.59 159.393 559.112 163.344 560.629 166.905C562.135 170.441 562.994 174.935 563.037 178.774C563.051 179.954 563.037 183.494 563.037 182.314" stroke="#006FEE" stroke-width="4.36505" stroke-linecap="round"/>
<path d="M539.793 141.311C539.376 141.311 540.391 141.309 540.432 141.311C544.46 141.466 548.597 142.023 552.402 143.386C556.979 145.025 560.746 147.298 564.314 150.568C567.714 153.685 570.774 157.373 571.917 161.943" stroke="#006FEE" stroke-width="4.36505" stroke-linecap="round"/>
<path d="M543.45 133.998C546.98 133.998 550.471 132.864 554.041 133.273C557.649 133.686 561.262 134.962 564.59 136.363C567.151 137.442 574.141 142.031 571.656 140.788" stroke="#006FEE" stroke-width="4.36505" stroke-linecap="round"/>
<path d="M475.807 116.761C478.158 121.333 481.926 124.839 485.993 127.89C492.575 132.827 500.111 136.549 507.423 140.252C510.93 142.027 514.761 143.44 518.581 144.387C522.029 145.242 525.525 145.705 529.056 146.026C529.803 146.094 530.534 146.405 531.276 146.52C531.63 146.574 532.852 146.479 532.219 146.795" stroke="#006FEE" stroke-width="4.36505" stroke-linecap="round"/>
<path d="M465.361 118.85C466.733 120.876 468.118 122.907 469.742 124.741C471.255 126.449 473.085 127.767 474.748 129.312C478.304 132.614 481.669 136.02 485.616 138.859C490.892 142.654 496.327 145.183 502.243 147.84C504.971 149.065 507.729 150.131 510.397 151.496C512.54 152.593 514.53 153.937 516.811 154.761C518.808 155.482 520.649 155.992 522.759 156.255C523.738 156.378 524.716 156.612 525.69 156.778C526.079 156.844 526.91 157.185 526.213 156.72" stroke="#006FEE" stroke-width="4.36505" stroke-linecap="round"/>
<path d="M456.742 122.246C456.852 124.603 458.802 126.51 460.195 128.281C462.098 130.7 464.496 132.473 466.696 134.593C469.703 137.491 473.143 139.724 476.533 142.181C480.958 145.389 485.188 148.911 489.91 151.699C492.345 153.137 494.673 154.691 496.976 156.328C499.582 158.179 502.42 159.476 505.189 161.029C507.676 162.424 510.341 163.374 513.009 164.352C514.181 164.781 516.469 165.438 517.072 166.644" stroke="#006FEE" stroke-width="4.36505" stroke-linecap="round"/>
<path d="M449.429 126.685C450.667 130.721 454.014 134.471 456.539 137.858C458.232 140.128 460.03 142.316 462.169 144.184C465.14 146.778 468.292 149.126 471.353 151.612C474.856 154.459 478.704 156.606 482.511 158.954C484.549 160.212 486.48 161.664 488.547 162.872C489.446 163.397 492.732 164.797 489.91 163.771" stroke="#006FEE" stroke-width="4.36505" stroke-linecap="round"/>
<path d="M443.161 139.744C445.424 142.4 447.883 144.917 450.256 147.477C452.644 150.054 455.227 152.97 458.077 155.037C459.554 156.108 461.301 156.736 462.749 157.822C463.364 158.284 463.838 158.824 464.577 159.07" stroke="#006FEE" stroke-width="4.36505" stroke-linecap="round"/>
<path d="M486.809 101.667C481.638 101.059 473.695 96.2227 475.444 89.8085C476.981 84.1718 484.51 83.1381 489.382 83.1381C493.229 83.1381 497.397 83.9983 501.241 84.4351C504.567 84.8131 508.496 85.0281 511.267 87.0292C513.189 88.4175 514.298 92.1389 512.955 94.2555C509.981 98.9426 503.352 100.068 498.297 100.638C495.726 100.927 493.46 100.555 490.967 100.555C490.415 100.555 487.476 100.889 488.291 101.297" stroke="#4E4E4E" stroke-width="2.61903" stroke-linecap="round"/>
<path d="M486.809 92.7731C484.99 92.8489 485.921 93.5837 487.097 93.8025C488.421 94.0489 491.695 91.9121 489.485 91.3731C488.57 91.1499 487.367 90.5785 486.438 91.0849C484.339 92.2298 486.921 93.001 487.92 93.1437" stroke="#4E4E4E" stroke-width="2.61903" stroke-linecap="round"/>
<path d="M499.038 92.7731C500.295 93.3824 500.873 93.5577 502.188 92.9172C503.7 92.1806 503.856 91.5336 502.167 91.126C499.301 90.4341 498.776 92.8795 501.632 93.5142" stroke="#4E4E4E" stroke-width="2.61903" stroke-linecap="round"/>
<path d="M482.362 81.6557C480.692 81.5273 479.405 79.4567 480.468 77.8881C481.314 76.6392 483.845 76.6015 485.038 77.2911C487.821 78.8989 486.398 82.0722 483.268 81.2028C482.063 80.8683 482.583 77.5663 484.421 78.4852C486.596 79.5731 483.528 82.5611 482.362 79.0616" stroke="#4E4E4E" stroke-width="2.61903" stroke-linecap="round"/>
<path d="M510.526 83.138C509.103 83.1049 505.12 81.6254 506.985 79.4322C507.816 78.4536 510.624 77.663 511.72 78.4851C513.566 79.8695 513.846 84.2699 510.526 82.9115C509.021 82.2958 507.598 79.4733 510.176 79.4733C510.741 79.4733 511.875 80.4727 511.596 81.0998C511.352 81.6505 510.092 81.6874 510.896 81.2851" stroke="#4E4E4E" stroke-width="2.61903" stroke-linecap="round"/>
<path d="M478.656 83.8791C473.344 80.6331 470.094 74.3605 475.794 70.147C480.269 66.8395 485.2 67.2519 490.309 67.9647C493.277 68.379 496.868 70.3091 498.955 72.4735C501.672 75.2908 498.153 81.2284 494.961 82.0262" stroke="#4E4E4E" stroke-width="2.61903" stroke-linecap="round"/>
<path d="M504.967 84.9909C502.882 82.3024 500.11 79.2044 500.541 75.5411C500.949 72.0711 507.717 69.2323 510.588 68.9324C515.812 68.3866 522.613 69.2744 525.905 73.8323C527.021 75.3779 527.943 76.0962 527.943 78.1146C527.943 82.7808 524.293 84.9284 520.243 86.185C518.755 86.6469 516.99 87.2144 515.426 87.2144C514.663 87.2144 512.493 86.8893 514.232 87.585" stroke="#4E4E4E" stroke-width="2.61903" stroke-linecap="round"/>
<path d="M473.097 64.9795C473.097 63.2672 472.66 62.2795 474.95 60.9855C476.366 60.185 478.484 60.4784 479.768 61.1913C481.287 62.0355 479.537 58.9412 478.573 58.5973C477.226 58.116 475.384 57.5141 473.921 58.0208C472.111 58.6471 471.996 65.422 472.644 63.6207C473.32 61.7425 473.122 60.1543 475.238 59.5031C476.564 59.0952 476.805 59.0518 477.915 59.7914" stroke="#4E4E4E" stroke-width="2.61903" stroke-linecap="round"/>
<path d="M515.714 65.35C517.849 64.2196 521.588 60.6587 523.867 63.9501C524.322 64.6076 524.979 67.3538 524.979 66.0088C524.979 62.841 524.073 61.3841 520.655 60.9854C518.606 60.7463 516.085 61.923 516.085 64.2383" stroke="#4E4E4E" stroke-width="2.61903" stroke-linecap="round"/>
<path d="M480.879 52.3798C482.081 56.1363 485.87 57.9385 489.773 57.9385" stroke="#4E4E4E" stroke-width="2.61903" stroke-linecap="round"/>
<path d="M490.885 53.8621C494.708 53.8621 504.226 51.7153 504.226 58.309" stroke="#4E4E4E" stroke-width="2.61903" stroke-linecap="round"/>
<path d="M510.155 51.6385C510.283 55.8549 516.117 57.04 519.42 57.1973" stroke="#4E4E4E" stroke-width="2.61903" stroke-linecap="round"/>
<path d="M522.755 54.2327C526.422 54.2327 530.037 56.5787 532.143 59.5443C533.552 61.5286 533.502 63.772 533.502 66.0913" stroke="#4E4E4E" stroke-width="2.61903" stroke-linecap="round"/>
<path d="M534.243 63.4972C538.807 63.365 543.42 62.3855 547.955 62.3855C548.365 62.3855 551.396 62.3855 550.178 62.3855" stroke="#4E4E4E" stroke-width="2.61903" stroke-linecap="round"/>
<path d="M536.096 72.0206C542.883 72.0206 549.67 72.0206 556.457 72.0206C557.929 72.0206 559.358 72.0433 560.822 72.2059C561.518 72.2832 565.133 72.8931 564.26 72.0206" stroke="#4E4E4E" stroke-width="2.61903" stroke-linecap="round"/>
<path d="M549.807 62.756C549.37 62.2645 549.154 61.6153 549.004 60.9854C548.345 58.2152 547.54 55.4867 547.131 52.6679C546.622 49.1642 546.843 45.5831 546.843 42.0446C546.843 40.9007 547.036 39.7925 547.872 38.9564C548.091 38.7375 547.954 39.3965 547.954 39.6152C547.954 40.8846 548.02 41.8192 548.696 42.9299C550.553 45.9815 551.859 49.166 554.11 52.0091C556.739 55.3291 560.263 57.8237 562.984 60.9854C564.414 62.6482 565.787 64.0067 566.092 66.2971C566.188 67.0125 565.742 70.5367 565.742 69.4264" stroke="#4E4E4E" stroke-width="2.61903" stroke-linecap="round"/>
<path d="M470.132 74.9852C467.869 74.9852 465.597 74.2694 463.338 74.0381C459.776 73.6733 456.198 73.5101 452.633 73.1323C451.009 72.9602 449.444 72.7617 447.815 72.7617C447.182 72.7617 446.53 72.8074 445.9 72.7411C445.107 72.6576 447.472 72.4409 448.268 72.3911" stroke="#4E4E4E" stroke-width="2.61903" stroke-linecap="round"/>
<path d="M460.497 66.8325C463.705 66.8325 466.907 67.0593 470.112 67.1825C470.575 67.2003 472.118 67.1369 471.244 67.5737" stroke="#4E4E4E" stroke-width="2.61903" stroke-linecap="round"/>
<path d="M460.497 65.7207C460.497 60.7005 460.469 55.5759 460.044 50.568C459.729 46.8606 459.756 35.6886 459.756 39.4094" stroke="#4E4E4E" stroke-width="2.61903" stroke-linecap="round"/>
<path d="M446.786 70.5382C446.786 66.0553 449.174 62.7262 451.315 58.9678C453.328 55.4344 455.207 51.6297 456.153 47.6651C456.688 45.4239 457.533 38.5876 457.533 40.8917" stroke="#4E4E4E" stroke-width="2.61903" stroke-linecap="round"/>
<path d="M534.243 84.6204C536.383 89.8186 539.658 94.521 541.078 99.9995C541.876 103.075 541.492 106.581 538.196 107.741C535.282 108.766 531.915 108.344 528.89 108.173C526.004 108.009 522.976 108.25 520.079 108.338C518.166 108.396 516.453 109.362 514.623 109.82C513.5 110.101 513.262 110.205 514.232 110.932" stroke="#4E4E4E" stroke-width="2.61903" stroke-linecap="round"/>
<path d="M542.025 79.0616C544.643 81.4179 547.937 83.0467 550.096 86.0203C552.148 88.8476 553.943 92.347 554.995 95.6555C556.432 100.17 558.421 104.394 559.257 109.079C560.031 113.411 560.506 118.034 560.904 122.42C561.251 126.236 561.295 137.739 561.295 133.908" stroke="#4E4E4E" stroke-width="2.61903" stroke-linecap="round"/>
<path d="M489.403 105.002C488.819 107.411 488.562 109.972 487.673 112.29C487.039 113.945 484.72 115.429 486.52 116.861C488.652 118.556 490.88 120.49 493.211 121.905C499.507 125.727 506.633 129.304 513.779 131.314C520.964 133.335 528.737 132.878 536.075 132.446C539.085 132.269 541.875 132.031 544.784 131.128C545.517 130.901 549.338 129.287 549.066 129.831" stroke="#4E4E4E" stroke-width="2.61903" stroke-linecap="round"/>
<path d="M562.037 122.049C561.553 122.109 566.173 126.556 566.648 127.031C569.003 129.386 570.796 131.831 571.795 135.061C572.791 138.279 573.154 141.291 573.154 144.655C573.154 148.229 572.995 151.802 573.607 155.319C574.906 162.79 572.252 169.906 569.469 176.689C565.177 187.15 554.336 189.222 544.249 190.689C538.128 191.579 532.289 191.718 526.111 191.718C520.913 191.718 515.364 191.587 510.238 190.792C507.778 190.41 505.358 189.838 502.888 189.515C501.518 189.337 500.835 189.096 502.373 189.865" stroke="#4E4E4E" stroke-width="2.61903" stroke-linecap="round"/>
<path d="M486.809 186.16C491.781 180.566 490.514 172.991 490.514 166.313C490.514 165.839 490.111 164.461 490.206 164.131C490.423 163.371 495.103 165.242 495.682 165.386C497.792 165.914 500.578 166.889 502.744 166.889C505.395 166.889 504.571 173.34 504.597 174.96C504.652 178.442 505.181 183.029 503.094 186.16C502.632 186.852 501.948 188.91 501.076 189.104C499.874 189.371 498.156 188.848 497 188.548C495.544 188.171 494.229 187.542 492.738 187.271C491.961 187.13 486.848 185.789 489.032 185.789" stroke="#4E4E4E" stroke-width="2.61903" stroke-linecap="round"/>
<path d="M506.079 171.336C511.926 171.127 517.075 168.961 521.808 165.778C523.566 164.595 524.389 163.444 525.123 161.413C525.438 160.539 525.556 159.779 526.461 159.478" stroke="#4E4E4E" stroke-width="2.61903" stroke-linecap="round"/>
<path d="M485.697 115.008C478.43 114.581 471.329 114.629 464.574 117.89C461.818 119.22 459.116 120.738 456.524 122.358C453.97 123.954 451.358 125.455 448.721 126.908C448.084 127.259 446.484 128.628 447.527 127.237" stroke="#4E4E4E" stroke-width="2.61903" stroke-linecap="round"/>
<path d="M489.773 169.113C486.293 169.113 482.294 166.959 479.191 165.407C478.274 164.948 476.484 163.307 476.432 164.748C476.353 166.977 474.884 168.581 474.291 170.595C473.906 171.906 473.838 173.502 473.838 170.966" stroke="#4E4E4E" stroke-width="2.61903" stroke-linecap="round"/>
<path d="M476.432 164.666C472.021 163.139 468.252 158.086 465.809 154.269C465.462 153.727 465.281 153.049 464.759 152.643C463.91 151.982 463.838 155.037 463.833 155.401C463.813 156.755 465.544 169.084 468.28 167.26" stroke="#4E4E4E" stroke-width="2.61903" stroke-linecap="round"/>
<path d="M361.182 93.1437C361.182 100.518 360.44 107.85 360.44 115.193C360.44 122.728 361.893 129.826 363.034 137.243" stroke="#4E4E4E" stroke-width="2.61903" stroke-linecap="round"/>
<path d="M361.552 93.5143C361.32 93.3077 360.388 93.0789 360.687 93.1643C362.033 93.5487 363.177 93.5083 364.599 93.432C370.111 93.136 375.433 92.989 380.905 92.2379C387.482 91.3352 394.025 90.1287 400.669 89.7879C408.704 89.3759 416.925 88.9389 424.922 88.038C428.604 87.623 439.745 87.9556 436.039 87.9556" stroke="#4E4E4E" stroke-width="2.61903" stroke-linecap="round"/>
<path d="M437.151 89.4379C437.25 92.8148 438.126 96.215 438.551 99.5671C438.764 101.256 438.508 103.048 439.209 104.652C439.843 106.099 440.534 107.549 440.939 109.079C441.953 112.909 441.227 117.71 441.227 121.678C441.227 127.293 443.098 132.74 443.471 138.334C443.694 141.681 444.192 144.899 444.192 148.278C444.192 149.332 443.482 153.548 444.933 153.548" stroke="#4E4E4E" stroke-width="2.61903" stroke-linecap="round"/>
<path d="M444.192 154.29C447.865 157.733 452.048 160.762 456.236 163.554C458.566 165.108 460.849 166.958 463.297 168.289C466.527 170.046 470.238 171.756 473.179 173.93C476.656 176.5 480.359 178.811 483.844 181.424C485.38 182.576 486.993 184.213 488.662 185.048" stroke="#4E4E4E" stroke-width="2.61903" stroke-linecap="round"/>
<path d="M467.909 168.001C466.931 168.87 461.294 168.246 463.462 169.113" stroke="#4E4E4E" stroke-width="2.61903" stroke-linecap="round"/>
<path d="M427.515 156.143C423.533 156.143 435.474 155.772 439.456 155.772C440.27 155.772 443.717 155.471 442.709 156.143" stroke="#4E4E4E" stroke-width="2.61903" stroke-linecap="round"/>
<path d="M369.705 151.695C372.377 143.976 376.413 138.109 382.222 132.508C384.031 130.763 387.344 129.886 389.799 129.831C392.844 129.764 395.532 130.523 398.24 131.931C402.098 133.938 405.793 136.201 409.563 138.355C409.896 138.545 410.194 138.749 410.386 139.096C412.193 142.348 415.19 143.704 418.169 145.766C421.556 148.112 424.041 152.185 426.568 155.401C427.633 156.757 428.899 157.948 429.945 159.292C430.471 159.969 430.535 160.845 431.057 161.516C432.125 162.889 433.261 164.214 434.371 165.572C435.031 166.378 436.033 166.756 436.595 167.63C437.209 168.586 437.83 169.422 438.633 170.225C440.615 172.207 442.83 173.891 444.727 175.969C446.975 178.43 449.315 181.35 451.995 183.36C455.198 185.762 458.862 187.779 461.959 190.257C464.904 192.613 469.011 195.031 472.726 195.959C474.632 196.436 476.324 197.295 478.203 197.853C478.973 198.082 485.423 199.501 482.362 199.501" stroke="#4E4E4E" stroke-width="2.61903" stroke-linecap="round"/>
<path d="M371.558 149.472C371.358 151.272 369.497 152.371 368.964 154.104C368.515 155.563 367.656 156.971 367.028 158.366C365.517 161.725 364.2 165.535 363.405 169.113C362.188 174.59 359.958 180.079 358.423 185.522C357.108 190.183 355.794 195.037 354.14 199.583C350.958 208.335 349.341 217.153 348.602 226.388C348.137 232.204 348.211 238.109 348.211 243.95C348.211 245.538 348.046 247.174 348.499 248.706C348.748 249.547 348.952 252.395 348.952 249.9" stroke="#4E4E4E" stroke-width="2.61903" stroke-linecap="round"/>
<path d="M321.529 145.025C320.794 144.198 321.493 143.058 321.776 142.143C322.485 139.853 323.356 138.081 324.679 136.131C326.143 133.973 327.889 133.017 329.682 131.314C334.783 126.468 340.491 123.352 347.47 125.096C351.559 126.119 354.577 129.364 357.929 131.684C360.036 133.144 361.385 135.035 363.055 136.914C364.791 138.867 366.577 140.476 368.964 141.669C369.242 141.808 372.858 143.172 371.558 143.172" stroke="#4E4E4E" stroke-width="2.61903" stroke-linecap="round"/>
<path d="M321.529 144.284C320.732 144.384 320.847 145.183 320.788 145.766C320.696 146.69 319.638 148.181 319.224 149.101C317.978 151.869 317.384 154.605 315.765 157.254C312.218 163.058 309.407 169.453 308.188 176.154C306.641 184.663 304.014 193.081 303.741 201.806C303.528 208.633 302.449 215.4 302.28 222.25C302.19 225.881 302.368 229.411 302.815 233.018C303.128 235.544 303.113 238.339 303.927 240.779C304.389 242.167 305.618 244.37 303.741 242.117" stroke="#4E4E4E" stroke-width="2.61903" stroke-linecap="round"/>
<path d="M440.856 106.485C441.064 102.962 443.366 99.8009 444.212 96.4172C444.969 93.389 445.832 88.8443 447.692 86.3085C450.178 82.918 454.628 81.1051 458.274 79.3498C459.962 78.5368 461.572 77.6402 463.256 76.8381C463.813 76.5728 464.385 76.3566 464.944 76.097C465.347 75.9098 463.461 77.2914 463.091 77.5793" stroke="#4E4E4E" stroke-width="2.61903" stroke-linecap="round"/>
<path d="M565.742 64.9795C577.765 64.9795 590.09 63.6858 601.668 67.7383C610.986 70.9994 619.103 78.7638 622.236 88.1615C624.36 94.5336 626.888 101.558 626.888 108.338C626.888 110.988 627.63 113.503 627.63 116.202C627.63 118.769 627.63 126.469 627.63 123.902" stroke="#4E4E4E" stroke-width="2.61903" stroke-linecap="round"/>
<path d="M628 122.79C627.092 122.904 627.578 128.799 627.444 129.44C626.857 132.261 626.153 135.009 625.591 137.819C625.02 140.678 625.091 143.606 625.035 146.507C625.006 148.039 624.389 149.626 624.109 151.14C623.779 152.923 623.761 154.738 623.471 156.513C623.119 158.664 622.51 160.508 622.441 162.731C622.31 166.983 621.953 171.69 620.753 175.804C620.059 178.185 619.032 180.714 618.756 183.195C618.165 188.513 616.141 193.313 616.141 198.759C616.141 204.59 614.109 209.944 612.065 215.353C610.965 218.266 609.884 221.309 608.936 224.288C608.294 226.306 607.583 228.16 606.753 230.135C606.112 231.662 605.968 233.458 605.209 234.891C603.741 237.665 603.163 241.435 602.142 244.423C600.643 248.807 598.876 253.201 597.818 257.682C596.608 262.807 594.932 267.637 593.248 272.629C592.136 275.924 591.416 279.236 590.777 282.655C590.448 284.42 590.201 286.111 590.201 287.905C590.201 288.878 590.599 290.719 589.83 289.181" stroke="#4E4E4E" stroke-width="2.61903" stroke-linecap="round"/>
<path d="M562.778 186.16C568.915 186.16 574.412 186.439 579.413 190.051C581.11 191.277 582.726 193.368 583.695 195.218C585.065 197.834 587.222 199.651 588.348 202.465" stroke="#4E4E4E" stroke-width="2.61903" stroke-linecap="round"/>
<path d="M187.469 83.0367C186.749 83.0367 188.131 83.2552 188.199 83.2713C190.902 83.915 193.458 85.0941 195.966 86.2688C199.328 87.8432 203.235 89.6566 206.183 91.9248C209.977 94.8429 215.331 96.8931 218.199 100.865C220.336 103.823 222.542 106.85 225.106 109.414C226.27 110.578 227.144 111.886 228.026 113.272C229.231 115.166 228.494 114.542 226.879 113.532" stroke="#4E4E4E" stroke-width="2.61903" stroke-linecap="round"/>
<path d="M185.593 83.506C185.773 80.4312 190.797 78.6038 193.099 77.3026C196.58 75.3349 200.303 73.5254 203.629 71.3077C206.677 69.2758 209.907 67.7754 212.778 65.4432C213.867 64.5586 214.819 63.6694 215.984 62.8628C217.028 62.1399 217.642 60.6933 216.557 62.8628" stroke="#4E4E4E" stroke-width="2.61903" stroke-linecap="round"/>
<path d="M184.185 83.0367C184.185 85.5319 183.534 88.85 184.211 91.221C184.306 91.5522 188.198 91.7747 188.903 91.9509C189.949 92.2124 190.919 92.3152 191.978 92.4722C196.285 93.1102 200.478 97.1827 203.89 99.4575" stroke="#4E4E4E" stroke-width="2.61903" stroke-linecap="round"/>
<path d="M189.346 94.2967C189.346 92.3403 190.061 98.4511 189.111 100.161C188.166 101.863 193.516 102.636 194.767 103.211C200.529 105.858 205.46 108.96 210.093 113.428C214.43 117.61 220.084 120.707 224.429 124.897C226.222 126.626 228.547 127.804 229.929 129.953C230.339 130.591 232.243 133.769 232.978 132.299" stroke="#4E4E4E" stroke-width="2.61903" stroke-linecap="round"/>
<path d="M229.694 120.101C229.694 121.769 229.452 131.361 231.101 131.361" stroke="#4E4E4E" stroke-width="2.61903" stroke-linecap="round"/>
<path d="M232.509 132.299C242.473 132.299 249.613 126.602 256.384 119.944C259.208 117.168 262.722 114.143 264.777 110.718C266.677 107.551 269.005 104.772 270.98 101.699C273.977 97.0378 276.133 91.9639 278.956 87.2594" stroke="#4E4E4E" stroke-width="2.61903" stroke-linecap="round"/>
<path d="M230.163 114.94C230.514 113.361 236.819 112.431 238.035 111.969C240.18 111.153 242.652 110.369 244.342 108.737C247.295 105.886 250.476 103.308 253.126 100.161C255.226 97.6672 257.49 95.1839 259.955 93.0978C263.052 90.4774 264.122 86.7565 266.289 83.506" stroke="#4E4E4E" stroke-width="2.61903" stroke-linecap="round"/>
<path d="M217.496 62.3936C221.874 63.5193 225.026 66.7357 228.86 68.9619C230.979 70.1921 233.173 71.2997 235.272 72.5588C238.637 74.5781 242.065 75.5409 244.968 78.3451C248.943 82.185 252.785 85.4619 257.609 88.2758C259.748 89.5236 263.141 90.7085 264.438 92.6546C265.572 94.3556 267.563 97.8491 269.573 98.5192" stroke="#4E4E4E" stroke-width="2.61903" stroke-linecap="round"/>
<path d="M217.026 61.9244C218.496 59.7629 219.669 56.936 221.483 55.1215C222.879 53.7263 224.09 52.5557 225.237 50.899C227.229 48.0213 227.378 44.9303 228.964 41.9849C230.466 39.1959 232.169 36.5456 233.916 33.8788C235.27 31.8126 236.937 29.7526 238.712 28.0403C240.403 26.4096 241.162 26.2993 238.139 27.2063" stroke="#4E4E4E" stroke-width="2.61903" stroke-linecap="round"/>
<path d="M240.954 26.7371C244.48 27.0576 247.227 30.5312 250.546 31.6372C253.836 32.7339 256.872 34.7094 260.085 36.1203C264.26 37.9533 268.28 40.0641 272.414 41.9588C274.613 42.967 277.185 43.4116 279.191 44.7999C280.445 45.6682 282.23 46.1766 283.648 46.8069C284.963 47.3914 284.846 48.642 285.759 49.9607C287.945 53.1184 289.972 56.3973 292.093 59.5785" stroke="#4E4E4E" stroke-width="2.61903" stroke-linecap="round"/>
<path d="M267.227 79.2834C269.282 77.2283 271.841 74.8823 273.039 72.2199C274.791 68.3271 275.591 64.0709 276.871 60.0477C277.814 57.083 278.63 54.4016 280.259 51.707C280.954 50.5588 281.98 49.7776 282.709 48.6835C282.943 48.3326 283.648 46.6174 283.648 47.3803" stroke="#4E4E4E" stroke-width="2.61903" stroke-linecap="round"/>
<path d="M241.423 25.7987C245.222 18.623 253.606 12.2131 260.633 8.46574C264.728 6.28174 269.151 5.4409 273.3 3.53952C274.905 2.804 276.714 2.3629 278.383 1.76712C279.871 1.23543 279.767 1.31604 278.487 2.34054" stroke="#4E4E4E" stroke-width="2.61903" stroke-linecap="round"/>
<path d="M278.956 1.87146C286.683 1.87146 295.331 5.16446 302.049 8.90892C305.172 10.6495 308.149 12.3001 310.964 14.5389C313.287 16.387 314.169 19.1112 316.124 21.2114C317.458 22.6436 320.972 26.7984 320.972 28.8745C320.972 29.2798 316.265 29.9199 315.916 30.0213C306.627 32.7179 297.227 36.7545 289.278 42.2196" stroke="#4E4E4E" stroke-width="2.61903" stroke-linecap="round"/>
<path d="M320.712 29.5521C320.712 32.3388 321.191 36.7423 322.797 38.8833C322.877 38.9896 322.148 38.9354 322.015 38.9354C320.569 38.9354 319.126 38.9327 317.74 39.4046C315.742 40.0847 313.692 40.334 311.798 41.2812" stroke="#4E4E4E" stroke-width="2.61903" stroke-linecap="round"/>
<path d="M319.304 40.3429C318.625 40.44 320.178 41.4306 320.347 41.7504C320.922 42.8363 321.322 44.2368 322.119 45.0345" stroke="#4E4E4E" stroke-width="2.61903" stroke-linecap="round"/>
<path d="M323.058 46.442C319.642 48.0493 315.65 48.996 312.032 50.1693C308.717 51.2446 303.532 51.8024 301.476 54.887" stroke="#4E4E4E" stroke-width="2.61903" stroke-linecap="round"/>
<path d="M208.582 75.061C208.652 75.6977 209.124 75.9441 209.416 76.4685C210.157 77.8033 209.993 79.6646 209.885 81.108C209.85 81.5752 208.704 86.4434 207.643 85.3826" stroke="#4E4E4E" stroke-width="2.61903" stroke-linecap="round"/>
<path d="M209.051 85.3826C213.108 87.7694 217.374 91.2689 220.545 94.7919C222.353 96.801 224.598 98.3585 226.357 100.37C227.708 101.914 228.667 100.449 230.632 100.396C232.476 100.346 233.637 100.326 234.959 101.699C236.383 103.178 235.811 104.692 238.243 103.628C242.771 101.647 249.094 98.7136 251.744 94.2967" stroke="#4E4E4E" stroke-width="2.61903" stroke-linecap="round"/>
<path d="M209.051 75.9994C212.813 74.6969 216.127 72.0766 219.841 70.8386" stroke="#4E4E4E" stroke-width="2.61903" stroke-linecap="round"/>
<path d="M250.337 28.1447C250.6 25.5144 253.762 22.8534 255.446 21.2636C257.679 19.1557 259.682 16.9822 261.806 14.7996C262.156 14.4397 268.913 8.65362 269.13 9.19566C270.861 13.5243 278.006 11.3908 280.833 9.95153C282.166 9.27281 284.217 6.71522 285.629 8.07488C287.255 9.64119 289.374 10.5462 290.894 12.167C293.012 14.4264 297.428 16.8806 300.303 18.0055C301.361 18.4194 304.619 19.2306 303.483 19.2306C300.788 19.2306 299.575 19.9823 297.254 21.2115C293.796 23.0418 294.252 26.5546 297.671 27.884C299.533 28.6081 297.476 29.3256 296.289 29.7607C294.71 30.3398 293.102 30.8519 291.519 31.4288C285.699 33.5507 281.771 37.7885 277.08 41.7504" stroke="#4E4E4E" stroke-width="2.61903" stroke-linecap="round"/>
<path d="M241.892 45.0345C239.688 47.1408 235.392 52.348 236.34 55.8253C237.124 58.7005 241.409 59.2964 243.795 59.0313C250.345 58.3035 249.812 50.133 255.394 47.8495C259.469 46.1822 264.545 49.3887 264.334 53.9226C264.141 58.0584 262.692 61.2607 259.355 63.6969C258.149 64.5775 256.689 65.1456 255.576 66.1469C255.243 66.4467 254.467 67.7392 255.029 66.6161" stroke="#4E4E4E" stroke-width="2.61903" stroke-linecap="round"/>
<path d="M232.978 45.9729C237.096 45.9729 241.8 49.0659 245.333 50.9252C247.702 52.1722 250.29 53.2367 252.709 54.3657C258.154 56.9069 263.225 59.627 268.165 63.332" stroke="#4E4E4E" stroke-width="2.61903" stroke-linecap="round"/>
<path d="M279.895 72.2461C277.815 72.1161 278.11 68.8448 278.591 67.5023C279.357 65.3639 282.251 64.2395 284.117 63.332C287.71 61.584 291.091 59.4268 294.856 57.9626C297.621 56.8872 300.559 56.0027 303.379 55.1216C306.838 54.0406 309.595 52.072 313.309 52.072C316.687 52.072 320.242 55.2688 322.484 57.5977C325.109 60.3233 328.688 65.8015 328.688 69.6657C328.688 72.2588 328.182 74.0618 325.195 74.5398C323.292 74.8443 321.059 74.6789 319.539 73.3929C317.816 71.9353 317.449 69.9837 316.255 68.2582C314.994 66.4373 314.952 63.7876 314.143 66.6161" stroke="#4E4E4E" stroke-width="2.61903" stroke-linecap="round"/>
<path d="M316.958 72.7153C313.738 74.3744 309.517 75.6779 306.194 73.393C304.605 72.301 304.762 67.0839 303.353 68.4928" stroke="#4E4E4E" stroke-width="2.61903" stroke-linecap="round"/>
<path d="M305.698 73.6536C302.326 73.8592 296.836 74.315 295.611 70.3955C295.53 70.1336 294.908 68.3463 294.908 68.9619" stroke="#4E4E4E" stroke-width="2.61903" stroke-linecap="round"/>
<path d="M329.157 70.8386C334.285 75.4539 340.625 78.8483 342.502 86.0865C343.885 91.4233 342.976 98.3053 339.035 102.247C332.921 108.36 327.782 98.6143 324.465 94.4011C322.313 91.6671 319.887 88.7193 318.262 85.6434C317.131 83.5038 315.163 79.5065 316.958 84.4444" stroke="#4E4E4E" stroke-width="2.61903" stroke-linecap="round"/>
<path d="M326.342 98.9884C326.342 105.013 318.814 115.837 311.98 110.066C308.184 106.861 307.668 102.611 307.367 97.9197C307.186 95.1083 306.754 91.9895 307.367 89.188C307.765 87.3689 308.039 82.9863 308.513 87.2593" stroke="#4E4E4E" stroke-width="2.61903" stroke-linecap="round"/>
<path d="M308.513 108.372C306.018 108.728 301.479 109.452 300.329 106.495C299.507 104.382 299.491 101.99 299.704 99.7704C299.934 97.3622 300.777 94.8274 301.267 92.4462C301.892 89.4112 302.22 86.6442 303.822 83.9752" stroke="#4E4E4E" stroke-width="2.61903" stroke-linecap="round"/>
<path d="M296.315 105.087C291.197 106.725 288.268 101.949 288.34 97.5287C288.428 92.0729 291.551 86.8086 293.031 81.6293" stroke="#4E4E4E" stroke-width="2.61903" stroke-linecap="round"/>
<path d="M286.932 98.05C276.945 95.4063 285.943 81.9209 292.093 80.6909" stroke="#4E4E4E" stroke-width="2.61903" stroke-linecap="round"/>
<path d="M283.648 87.7284C278.437 85.8525 280.22 72.1979 285.994 74.1226" stroke="#4E4E4E" stroke-width="2.61903" stroke-linecap="round"/>
<path d="M243.3 18.7614C243.3 12.3966 236.714 9.16482 231.571 7.73604C228.028 6.75204 224.696 5.74047 221.04 5.15563C219.258 4.87039 213.459 3.99866 215.358 7.55358C216.813 10.2755 220.082 15.0058 223.595 13.6006" stroke="#4E4E4E" stroke-width="2.61903" stroke-linecap="round"/>
<path d="M217.965 13.6006C217.893 14.1719 217.19 14.5028 216.922 15.0081C216.064 16.6289 216.57 18.4967 217.965 19.5955C220.592 21.6652 224.149 21.1072 227.348 21.1072" stroke="#4E4E4E" stroke-width="2.61903" stroke-linecap="round"/>
<path d="M221.249 22.0455C221.249 25.043 222.782 25.6609 225.836 26.4244C227.248 26.7773 228.717 26.7639 230.163 26.7372C230.667 26.7278 232.783 26.1311 231.571 26.7372" stroke="#4E4E4E" stroke-width="2.61903" stroke-linecap="round"/>
<path d="M224.533 27.2063C224.533 31.6393 227.533 34.7129 232.04 34.7129" stroke="#4E4E4E" stroke-width="2.61903" stroke-linecap="round"/>
<path d="M222.656 4.68637C213.995 4.68637 205.592 1.40222 196.852 1.40222C194.359 1.40222 193.275 4.56741 193.073 6.58909C192.774 9.5836 193.744 10.3207 196.279 11.8281C200.482 14.3272 205.076 16.7397 209.989 17.3538" stroke="#4E4E4E" stroke-width="2.61903" stroke-linecap="round"/>
<path d="M195.445 13.6006C191.894 15.3759 190.507 17.5248 189.711 21.1072C189.256 23.1509 189.186 25.4659 191.483 26.4765C195.083 28.0607 198.619 28.1447 202.482 28.1447" stroke="#4E4E4E" stroke-width="2.61903" stroke-linecap="round"/>
<path d="M194.976 28.6138C193.735 29.8549 190.93 32.8097 192.369 34.7129C193.387 36.0591 195.393 37.0168 196.957 37.5279C204.223 39.9033 209.889 34.3778 216.088 31.8979" stroke="#4E4E4E" stroke-width="2.61903" stroke-linecap="round"/>
<path d="M201.075 37.9971C200.938 40.1844 199.686 39.8739 201.7 42.2717C202.945 43.7527 204.941 43.627 206.236 43.627" stroke="#4E4E4E" stroke-width="2.61903" stroke-linecap="round"/>
<path d="M221.718 37.5278C218.964 39.5256 215.893 41.2894 212.595 42.2195C210.899 42.6978 209.224 42.9872 207.669 43.8615C204.683 45.5413 208.446 48.6627 210.197 49.2569C215.881 51.1853 221.912 50.6644 227.817 50.6644" stroke="#4E4E4E" stroke-width="2.61903" stroke-linecap="round"/>
<path d="M123.194 120.101C123.194 121.819 123.148 123.545 123.22 125.262C123.329 127.881 124.601 130.419 124.601 133.003C124.601 135.125 127.092 135.453 128.824 136.052C132.34 137.27 135.065 138.492 138.78 138.972C151.897 140.664 166.172 137.645 175.74 128.076" stroke="#4E4E4E" stroke-width="2.61903" stroke-linecap="round"/>
<path d="M173.863 114.002C174.476 118.045 175.352 122.126 175.74 126.2C175.793 126.758 176.224 126.669 176.678 126.669" stroke="#4E4E4E" stroke-width="2.61903" stroke-linecap="round"/>
<path d="M173.394 115.409C171.674 119.281 169.84 122.75 166.253 125.262C161.741 128.42 156.177 129.755 150.874 130.892" stroke="#4E4E4E" stroke-width="2.61903" stroke-linecap="round"/>
<path d="M124.132 123.385C125.431 125.838 128.456 126.249 130.909 127.19C133.174 128.06 135.772 128.546 138.207 128.546" stroke="#4E4E4E" stroke-width="2.61903" stroke-linecap="round"/>
<path d="M121.317 123.385C121.317 117.267 125.254 115.153 130.179 112.438C136.209 109.114 141.7 107.371 148.424 106.026C155.858 104.539 174.332 102.516 174.332 114.471" stroke="#4E4E4E" stroke-width="2.61903" stroke-linecap="round"/>
<path d="M156.035 110.248C159.373 110.248 164.095 111.023 166.148 113.897C169.234 118.218 162.272 121.83 159.788 123.854" stroke="#4E4E4E" stroke-width="2.61903" stroke-linecap="round"/>
<path d="M134.923 116.347C133.017 116.453 129.262 119.592 130.752 121.508C133.055 124.469 138.268 123.385 141.491 123.385" stroke="#4E4E4E" stroke-width="2.61903" stroke-linecap="round"/>
<path d="M129.293 136.522C129.293 138.602 129.745 140.194 130.179 142.256C130.315 142.9 131.012 145.695 131.43 146.113C132.974 147.657 137.372 148.259 139.406 148.485C143.472 148.937 147.906 149.466 151.995 149.163C158.439 148.686 165.666 146.8 171.517 144.028C175.069 142.346 180.022 139.628 181.37 135.583" stroke="#4E4E4E" stroke-width="2.61903" stroke-linecap="round"/>
<path d="M178.555 127.607C179.766 131.105 180.901 134.187 180.901 137.929" stroke="#4E4E4E" stroke-width="2.61903" stroke-linecap="round"/>
<path d="M128.354 141.213C125.73 141.929 123.503 144.032 123.22 146.869C122.754 151.527 126.578 150.987 130.387 151.795C138.878 153.596 145.774 155.128 154.158 151.535" stroke="#4E4E4E" stroke-width="2.61903" stroke-linecap="round"/>
<path d="M123.663 149.189C123.921 151.773 126.183 154.487 127.286 156.748C128.478 159.192 127.695 159.797 130.518 160.006C136.108 160.42 141.394 161.387 147.095 161.387C158.413 161.387 170.996 160.032 179.493 151.535" stroke="#4E4E4E" stroke-width="2.61903" stroke-linecap="round"/>
<path d="M177.148 144.028C177.148 146.974 177.223 150.54 179.024 152.942" stroke="#4E4E4E" stroke-width="2.61903" stroke-linecap="round"/>
<path d="M179.493 152.942C179.591 155.471 180.013 158.413 181.37 160.449" stroke="#4E4E4E" stroke-width="2.61903" stroke-linecap="round"/>
<path d="M126.009 162.795C126.009 165.454 127.171 169.118 129.032 170.979C131.004 172.951 134.529 172.052 137.034 172.204C140.814 172.433 144.506 172.647 148.32 172.647C153.502 172.647 158.064 170.905 163.073 169.832" stroke="#4E4E4E" stroke-width="2.61903" stroke-linecap="round"/>
<path d="M139.614 163.733C139.614 167.789 140.836 170.687 144.306 173.116" stroke="#4E4E4E" stroke-width="2.61903" stroke-linecap="round"/>
<path d="M167.764 150.596C167.764 152.962 168.009 155.277 168.233 157.634" stroke="#4E4E4E" stroke-width="2.61903" stroke-linecap="round"/>
<path d="M153.689 131.361C151.328 131.951 155.774 135.815 156.035 136.052" stroke="#4E4E4E" stroke-width="2.61903" stroke-linecap="round"/>
<path d="M158.85 129.953C157.809 132.297 159.545 134.082 160.727 136.052" stroke="#4E4E4E" stroke-width="2.61903" stroke-linecap="round"/>
<path d="M133.046 173.585C133.046 175.462 132.759 179.776 134.454 180.623" stroke="#4E4E4E" stroke-width="2.61903" stroke-linecap="round"/>
<path d="M133.984 182.969C144.946 183.578 155.473 184.922 165.914 180.623C169.848 179.003 174.068 178.147 177.877 176.166C179.737 175.199 181.732 174.118 183.247 172.647C183.759 172.149 185.593 170.131 185.593 170.301" stroke="#4E4E4E" stroke-width="2.61903" stroke-linecap="round"/>
<path d="M185.123 169.832C185.123 168.116 185.49 165.822 184.654 164.306C184.422 163.885 184.341 162.691 184.081 162.43C183.68 162.029 182.825 161.904 182.308 161.387" stroke="#4E4E4E" stroke-width="2.61903" stroke-linecap="round"/>
<path d="M182.308 163.264C181.797 163.328 181.689 163.843 181.37 164.202C180.404 165.289 179.601 165.806 178.268 166.6C173.592 169.386 169.137 171.228 164.011 173.116" stroke="#4E4E4E" stroke-width="2.61903" stroke-linecap="round"/>
<path d="M175.271 170.301V174.055" stroke="#4E4E4E" stroke-width="2.61903" stroke-linecap="round"/>
<path d="M179.493 167.956C179.493 169.716 179.769 171.371 179.963 173.116" stroke="#4E4E4E" stroke-width="2.61903" stroke-linecap="round"/>
<path d="M22.379 64.5598C23.1337 61.7925 25.1147 60.2843 26.7611 58.189C29.1951 55.0911 32.6853 52.695 36.0307 50.7058C36.1599 50.629 37.4396 49.7732 37.5307 50.1833C37.6843 50.8745 37.6629 52.0627 37.3791 52.7114C36.2913 55.1977 38.4105 54.3088 40.2779 53.7901C41.0922 53.5639 41.9161 53.6856 42.7049 53.335C43.6196 52.9285 43.5195 53.1441 43.9184 53.9418C44.6107 55.3264 45.024 56.6846 45.3678 58.189C46.0997 61.3906 45.4353 65.4817 45.4353 68.7396C45.4353 70.2789 45.4353 71.8182 45.4353 73.3576C45.4353 75.7001 49.3842 76.0651 51.0308 76.5261C52.9039 77.0506 55.0224 76.2028 56.8117 76.998C58.2693 77.6459 53.7486 79.3508 53.1712 79.5767C52.2965 79.919 50.0528 80.6464 49.9858 81.852C49.8987 83.4196 51.597 85.2039 52.4802 86.4025C52.953 87.0442 53.8764 87.7824 54.1656 88.5261C54.4077 89.1486 52.1893 89.6746 51.8735 89.807C50.2366 90.4935 48.6393 91.1974 47.1881 92.234C46.7992 92.5118 45.4353 93.7682 45.4353 93.6834" stroke="#4E4E4E" stroke-width="2.61903" stroke-linecap="round"/>
<path d="M38.7612 85.1891C38.8902 87.51 42.3288 90.0882 43.9185 91.4925C44.6032 92.0972 45.4919 93.0956 46.3455 93.3801" stroke="#4E4E4E" stroke-width="2.61903" stroke-linecap="round"/>
<path d="M22.3791 63.6498C22.3791 65.8931 21.3053 69.0231 22.5308 71.0655C23.8255 73.2233 25.2767 75.0922 26.9297 76.9813C28.3176 78.5675 30.6925 80.2854 32.5589 81.2453C33.5305 81.745 34.4589 82.4721 35.4915 82.8296C35.9356 82.9833 37.5819 83.0542 36.6376 83.3689" stroke="#4E4E4E" stroke-width="2.61903" stroke-linecap="round"/>
<path d="M46.9523 46.3576C48.7297 46.1601 50.8401 44.9143 52.413 44.1666C54.2528 43.2919 55.7291 43.3239 57.7388 43.3239C58.661 43.3239 63.6438 44.2279 63.6377 44.234" stroke="#4E4E4E" stroke-width="2.61903" stroke-linecap="round"/>
<path d="M63.941 45.4475C65.2677 43.955 66.3518 42.2428 67.8175 40.8295C68.9513 39.7362 73.8903 36.6272 74.8624 38.9418C75.6327 40.7758 76.4252 42.6186 76.9186 44.5374C77.0409 45.0131 76.986 47.8556 76.986 46.9643" stroke="#4E4E4E" stroke-width="2.61903" stroke-linecap="round"/>
<path d="M46.9523 46.6609C49.5734 46.8793 52.2299 47.1575 54.8231 46.5092C56.9159 45.986 56.3888 46.7472 54.9916 47.8406C54.5955 48.1506 52.111 49.5625 52.4804 50.3013C52.8326 51.0057 55.898 51.2114 56.6602 51.2114" stroke="#4E4E4E" stroke-width="2.61903" stroke-linecap="round"/>
<path d="M54.2332 51.8182C54.2332 53.6909 52.7522 54.9432 52.177 56.6048C51.5937 58.2899 52.0013 58.6275 53.6939 59.0992C56.4341 59.8628 59.3865 59.8102 62.0534 60.852C63.39 61.3741 64.8975 61.7536 66.3006 62.0655C66.6777 62.1492 67.8927 62.7475 67.5815 62.4362" stroke="#4E4E4E" stroke-width="2.61903" stroke-linecap="round"/>
<path d="M57.5702 61.8295C57.5702 62.8783 57.0224 66.6655 57.9241 67.0036C59.5348 67.6076 61.7108 68.3745 63.132 69.2789C64.5006 70.1498 62.2393 75.1778 64.3118 75.1778C65.7895 75.1778 66.6374 74.3016 67.5815 73.3576" stroke="#4E4E4E" stroke-width="2.61903" stroke-linecap="round"/>
<path d="M68.1882 73.3575C69.2394 74.8759 70.4922 76.7851 71.8287 78.0261C72.1486 78.3232 72.7717 78.8182 73.2107 78.8182C75.0815 78.8182 78.1759 77.3723 78.8062 75.4811" stroke="#4E4E4E" stroke-width="2.61903" stroke-linecap="round"/>
<path d="M73.9524 61.8295C72.8328 66.4475 76.9871 70.6282 80.0198 73.661" stroke="#4E4E4E" stroke-width="2.61903" stroke-linecap="round"/>
<path d="M76.3793 68.2003C78.2541 68.2003 79.2538 67.6562 80.7613 66.4138C82.0818 65.3255 81.9567 64.4996 82.2107 62.9756C82.5452 60.9691 81.4946 58.5237 82.7501 56.7396C83.4118 55.7993 85.3878 54.9982 86.4579 54.616C86.9153 54.4527 89.0665 53.3623 88.5141 53.6385" stroke="#4E4E4E" stroke-width="2.61903" stroke-linecap="round"/>
<path d="M77.5927 47.5711C80.4924 47.2489 82.604 48.3263 85.3286 46.8127C87.284 45.7263 90.6376 51.3896 90.6376 53.0318" stroke="#4E4E4E" stroke-width="2.61903" stroke-linecap="round"/>
<path d="M76.0758 51.5149C76.0758 52.9492 78.0211 52.6555 78.3005 51.4138C78.5764 50.1876 75.1366 51.197 76.3792 51.8183" stroke="#4E4E4E" stroke-width="2.61903" stroke-linecap="round"/>
<path d="M46.6488 66.3801C49.2548 66.3801 52.1761 67.3905 54.0477 69.2622C54.748 69.9624 55.3832 71.7655 55.0926 72.7341C54.7788 73.7803 53.6263 73.9177 53.6263 75.1779" stroke="#4E4E4E" stroke-width="2.61903" stroke-linecap="round"/>
<path d="M22.3791 73.3575C21.5922 76.6033 19.8254 78.7209 16.2948 78.1777C13.8034 77.7944 13.278 75.2625 13.278 73.189C13.278 70.9879 15.9131 69.1494 17.9802 70.3744C19.0871 71.0303 19.741 71.8297 19.6488 73.1216C19.6137 73.6128 18.4353 73.9642 18.4353 73.9642" stroke="#4E4E4E" stroke-width="2.61903" stroke-linecap="round"/>
<path d="M57.8737 86.4025C61.0565 85.1592 69.2842 83.3672 71.0198 88.0879C71.8801 90.428 68.4258 93.0767 66.3681 93.0767C63.1942 93.0767 61.6478 91.8889 59.3905 90.1104C58.5377 89.4385 57.1176 85.9181 59.0871 86.7059" stroke="#4E4E4E" stroke-width="2.61903" stroke-linecap="round"/>
<path d="M79.413 85.1891C82.6125 85.1891 86.381 86.3132 89.4242 84.8183C90.1621 84.4558 93.6484 81.5256 93.6714 81.5486" stroke="#4E4E4E" stroke-width="2.61903" stroke-linecap="round"/>
<path d="M82.4467 90.9531C80.0896 91.4531 77.1188 88.9244 76.3793 86.7059" stroke="#4E4E4E" stroke-width="2.61903" stroke-linecap="round"/>
<path d="M76.0758 86.4025C77.5245 84.1869 78.4056 81.8063 80.5253 80.1328C82.6117 78.4856 84.2039 77.3596 86.6938 76.3913C90.0856 75.0722 93.3869 74.0238 97.0759 73.9643C100.098 73.9156 103.439 74.3898 105.031 77.2845C106.776 80.4572 103.99 82.3005 102.469 84.5823" stroke="#4E4E4E" stroke-width="2.61903" stroke-linecap="round"/>
<path d="M103.076 76.3914C105.105 76.668 107.121 78.2922 108.773 79.4251C109.24 79.7455 110.209 80.5042 110.34 81.0936C110.778 83.0626 109.871 84.5527 108.84 86.0992" stroke="#4E4E4E" stroke-width="2.61903" stroke-linecap="round"/>
<path d="M116.424 74.5711C116.385 74.2187 116.184 74.0587 115.969 73.7958C115.159 72.8058 115.026 70.7856 114.958 69.5654C114.893 68.3922 116.082 66.192 116.728 65.3014C118.525 62.8205 121.778 59.5478 124.919 59.0991" stroke="#4E4E4E" stroke-width="2.61903" stroke-linecap="round"/>
<path d="M123.705 75.1777C128.092 74.1454 132.331 72.4805 134.761 68.5036C135.526 67.2518 135.537 64.8865 135.537 63.4137C135.537 61.9585 135.748 60.4312 135.082 59.099C134.821 58.5786 133.852 56.2329 133.716 56.3687" stroke="#4E4E4E" stroke-width="2.61903" stroke-linecap="round"/>
<path d="M114.604 75.7847C112.698 74.7758 110.357 73.892 110.357 71.5206C110.357 68.7727 109.882 65.5777 111.149 63.0431C112.624 60.0941 114.926 58.1771 117.806 56.6049C120.502 55.1338 124.142 52.6294 127.329 52.4419C128.166 52.3927 128.945 52.3141 129.773 52.1891C131.89 51.8695 135.721 52.315 136.143 54.852" stroke="#4E4E4E" stroke-width="2.61903" stroke-linecap="round"/>
<path d="M73.9521 109.156C72.0548 109.156 72.5626 105.521 72.5701 104.403C72.5888 101.638 74.2617 98.5823 76.5308 97.0038C78.383 95.7153 79.8724 94.1704 81.9746 93.2454C84.0913 92.314 86.3057 91.3059 88.5814 90.8858C94.6547 89.7646 106.291 85.702 111.132 91.8633C113.958 95.4598 115.625 101.274 112.329 105.077C106.024 112.352 96.8914 114.616 87.6039 114.616" stroke="#4E4E4E" stroke-width="2.61903" stroke-linecap="round"/>
<path d="M72.1321 107.335C71.0657 107.602 72.9623 112.722 73.059 113.689C73.2215 115.314 74.2717 116.828 75.1995 118.088C75.876 119.007 77.1911 121.393 78.1995 121.897" stroke="#4E4E4E" stroke-width="2.61903" stroke-linecap="round"/>
<path d="M77.8962 122.807C82.7125 123.075 87.5291 123.717 92.3907 123.717C95.9204 123.717 99.3796 121.741 102.773 120.987C105.338 120.417 108.208 118.585 110.054 116.74C111.4 115.394 114.604 113.333 114.604 111.279" stroke="#4E4E4E" stroke-width="2.61903" stroke-linecap="round"/>
<path d="M114.301 99.7509C114.955 102.449 116.424 104.668 116.424 107.487C116.424 108.339 116.003 111.523 116.728 111.886" stroke="#4E4E4E" stroke-width="2.61903" stroke-linecap="round"/>
<path d="M90.941 108.852C94.5878 108.852 98.8551 107.391 101.829 105.228C103.844 103.762 104.71 101.089 106.716 99.7509" stroke="#4E4E4E" stroke-width="2.61903" stroke-linecap="round"/>
<path d="M82.75 117.65C82.75 119.834 84.9924 122.746 86.9972 123.414" stroke="#4E4E4E" stroke-width="2.61903" stroke-linecap="round"/>
<path d="M13.5206 92.9336C14.1234 92.9336 12.2196 94.3037 12.0478 94.428C9.49642 96.2756 7.75764 99.0777 6.50317 101.9" stroke="#4E4E4E" stroke-width="2.61903" stroke-linecap="round"/>
<path d="M3.38443 112.036C1.43996 113.981 1.00726 118.16 1.825 120.613" stroke="#4E4E4E" stroke-width="2.61903" stroke-linecap="round"/>
<path d="M2.60461 133.089C2.60461 133.818 2.60461 134.547 2.60461 135.276C2.60461 139.119 3.23521 141.148 6.11332 143.615" stroke="#4E4E4E" stroke-width="2.61903" stroke-linecap="round"/>
<path d="M19.7583 154.921C19.8781 155.879 24.625 158.136 25.173 158.473C27.5584 159.939 29.9225 160.873 32.6236 161.548" stroke="#4E4E4E" stroke-width="2.61903" stroke-linecap="round"/>
<path d="M55.6251 163.887C59.0095 165.48 63.8125 164.764 67.3208 163.887" stroke="#4E4E4E" stroke-width="2.61903" stroke-linecap="round"/>
<path d="M87.2035 162.718C89.8484 162.718 92.5826 162.904 95.1739 162.306C96.7363 161.946 98.0375 161.158 99.6789 161.158" stroke="#4E4E4E" stroke-width="2.61903" stroke-linecap="round"/>
<path d="M108.256 159.599C111.148 159.599 113.466 157.732 116.053 156.87" stroke="#4E4E4E" stroke-width="2.61903" stroke-linecap="round"/>
<path d="M190.516 142.055C194.757 141.863 198.852 141.8 202.991 142.835" stroke="#4E4E4E" stroke-width="2.61903" stroke-linecap="round"/>
<path d="M212.347 149.073C215.054 150.155 218.22 150.128 220.513 152.192C221.674 153.237 222.493 153.883 224.043 154.141" stroke="#4E4E4E" stroke-width="2.61903" stroke-linecap="round"/>
<path d="M236.518 160.379C240.663 162.388 247.187 162.845 251.723 161.938" stroke="#4E4E4E" stroke-width="2.61903" stroke-linecap="round"/>
<path d="M264.198 158.04C269.826 158.04 274.116 155.07 279.013 152.971" stroke="#4E4E4E" stroke-width="2.61903" stroke-linecap="round"/>
<path d="M288.759 144.394C292.289 141.72 295.763 138.95 298.895 135.818" stroke="#4E4E4E" stroke-width="2.61903" stroke-linecap="round"/>
<path d="M310.981 125.681C315.241 123.661 319.532 121.916 324.236 121.393" stroke="#4E4E4E" stroke-width="2.61903" stroke-linecap="round"/>
<path d="M340.22 118.274C343.373 117.743 348.069 116.268 351.136 117.494" stroke="#4E4E4E" stroke-width="2.61903" stroke-linecap="round"/>
</svg>
