<?xml version="1.0" standalone="no"?>
<!DOCTYPE svg PUBLIC "-//W3C//DTD SVG 20010904//EN"
 "http://www.w3.org/TR/2001/REC-SVG-20010904/DTD/svg10.dtd">
<svg version="1.0" xmlns="http://www.w3.org/2000/svg"
 width="1200.000000pt" height="800.000000pt" viewBox="0 0 1200.000000 800.000000"
 preserveAspectRatio="xMidYMid meet">

<g transform="translate(0.000000,800.000000) scale(0.100000,-0.100000)"
fill="#000000" stroke="none">
<path d="M0 7881 c0 -66 4 -122 9 -126 5 -3 13 -20 16 -38 4 -17 15 -50 25
-72 10 -22 32 -74 49 -115 18 -41 43 -96 56 -121 14 -25 22 -48 19 -51 -4 -5
18 -62 52 -131 8 -16 14 -35 14 -42 0 -7 6 -15 14 -18 8 -3 17 -20 21 -38 4
-19 15 -33 26 -36 20 -6 27 -49 9 -55 -6 -2 -6 -8 0 -18 8 -13 10 -12 10 3 0
9 7 17 16 17 15 0 16 9 9 73 -3 39 -13 97 -21 127 -8 30 -14 69 -14 86 0 18
-6 34 -14 37 -8 3 -17 28 -21 59 -4 29 -13 63 -21 75 -8 12 -14 29 -14 38 0 9
-6 26 -14 38 -8 12 -17 42 -19 67 -5 51 -26 130 -39 145 -4 5 -8 17 -8 27 0
10 -6 21 -14 24 -8 3 -17 22 -21 42 -3 20 -15 56 -27 80 -18 39 -23 42 -59 42
l-39 0 0 -119z"/>
<path d="M1838 7978 c5 -21 13 -32 58 -82 13 -15 24 -38 24 -52 0 -14 10 -35
23 -47 22 -21 23 -27 18 -115 -5 -73 -10 -96 -23 -106 -13 -9 -18 -27 -18 -60
l0 -46 -84 0 -83 0 5 25 c2 15 0 25 -7 25 -6 0 -11 -17 -11 -41 0 -24 4 -38
10 -34 6 4 10 -5 10 -19 0 -14 4 -26 9 -26 4 0 23 -30 42 -67 18 -38 44 -81
56 -96 13 -16 23 -34 23 -40 0 -7 15 -28 34 -47 18 -20 36 -45 40 -57 4 -12
13 -24 21 -27 8 -3 15 -15 15 -26 0 -11 5 -20 10 -20 6 0 16 -12 23 -27 6 -16
20 -34 29 -41 10 -7 18 -20 18 -28 0 -8 4 -14 8 -14 4 0 13 -15 20 -34 7 -18
24 -46 38 -61 37 -40 49 -77 30 -91 -10 -7 -16 -26 -16 -48 0 -33 -2 -36 -30
-36 -28 0 -30 -2 -30 -40 0 -22 5 -40 10 -40 6 0 10 -18 10 -40 0 -33 3 -40
20 -40 11 0 20 -4 20 -9 0 -5 14 -23 31 -40 26 -26 38 -31 80 -31 l49 0 0 -40
c0 -30 -4 -40 -16 -40 -14 0 -15 -2 -3 -17 13 -15 14 -15 17 0 7 33 22 16 22
-23 0 -22 5 -40 10 -40 6 0 10 -16 10 -36 0 -40 16 -61 50 -66 22 -3 23 -4 7
-20 -9 -9 -17 -21 -17 -27 0 -6 -6 -11 -13 -11 -8 0 -14 -6 -14 -14 0 -23 41
1 62 37 10 18 32 46 48 62 16 17 35 42 43 58 8 15 18 27 23 27 4 0 13 10 19
23 11 22 22 40 92 151 19 31 40 56 47 56 14 0 17 45 13 200 -2 109 9 148 65
216 66 81 188 104 281 55 21 -12 49 -21 61 -21 12 0 33 -4 47 -10 16 -6 26 -6
26 0 0 5 -22 12 -50 16 -27 4 -50 10 -50 14 0 4 -14 10 -30 14 -27 5 -30 8
-21 25 6 11 17 26 23 33 20 22 37 55 31 61 -9 10 -33 -5 -33 -21 0 -11 -3 -13
-10 -6 -6 6 -6 22 0 44 6 19 10 50 10 67 0 23 5 33 15 33 11 0 15 11 15 40 l0
40 50 0 50 0 0 40 c0 22 5 40 10 40 6 0 10 -18 10 -40 0 -33 3 -40 20 -40 17
0 20 -7 20 -40 0 -39 12 -52 26 -29 7 12 193 6 244 -8 22 -6 24 -5 11 10 -7 9
-10 17 -5 17 5 1 32 21 59 46 47 43 121 84 151 84 8 0 14 5 14 10 0 6 7 10 15
10 15 0 116 58 126 73 11 16 62 37 78 32 10 -3 28 7 44 25 35 36 39 37 73 5
20 -18 23 -25 11 -25 -9 0 -19 5 -22 10 -3 6 -14 9 -23 9 -15 -1 -15 -2 1 -6
9 -2 17 -11 17 -19 0 -8 -4 -13 -9 -10 -17 11 -67 -6 -80 -26 -11 -17 -10 -19
6 -14 15 5 19 1 18 -19 0 -14 -6 -29 -13 -34 -18 -11 27 -101 51 -101 9 0 17
-5 17 -10 0 -6 8 -5 20 2 16 11 22 10 33 -6 14 -19 14 -19 25 0 11 18 11 18
12 -3 0 -26 17 -38 48 -34 14 1 22 -3 22 -12 0 -10 8 -13 26 -9 21 4 25 2 19
-8 -6 -10 -4 -11 11 -6 41 17 56 18 64 6 7 -11 14 -11 34 -2 22 10 27 9 36 -8
6 -11 20 -20 31 -20 11 0 25 -4 32 -10 37 -31 104 -77 120 -83 9 -3 17 -13 17
-22 0 -8 5 -15 10 -15 6 0 10 -6 10 -13 0 -7 14 -21 30 -30 17 -10 30 -22 30
-28 0 -14 92 -99 100 -94 5 3 18 -11 29 -31 14 -24 27 -34 36 -30 9 3 15 -1
15 -10 0 -8 7 -17 16 -21 12 -4 14 -14 9 -41 l-7 -35 27 17 27 18 -4 -37 c-4
-31 1 -42 26 -68 17 -17 31 -34 31 -38 0 -5 17 -23 37 -42 26 -23 38 -45 43
-73 3 -21 10 -47 16 -56 5 -10 9 -22 9 -28 0 -11 11 -26 41 -58 9 -9 19 -24
22 -32 3 -8 6 0 6 18 1 46 28 132 49 159 9 12 33 24 52 28 49 8 84 -17 165
-117 111 -136 140 -224 92 -279 -22 -26 -95 -69 -119 -69 -7 0 -20 -6 -29 -13
-13 -10 -8 -12 32 -13 26 0 46 3 43 8 -3 4 4 8 15 8 13 0 21 -7 21 -16 0 -9 6
-14 13 -11 6 2 28 -5 47 -16 19 -11 36 -15 38 -9 1 5 21 0 43 -12 28 -14 38
-26 35 -38 -2 -10 -1 -16 3 -15 10 3 61 -57 61 -71 0 -5 6 -15 14 -21 8 -7 18
-27 21 -44 13 -67 49 -108 38 -44 -3 23 0 37 11 46 9 7 16 19 16 27 0 20 106
124 127 124 21 0 52 -31 79 -80 10 -19 27 -46 37 -59 9 -13 17 -34 17 -47 0
-13 4 -24 8 -24 8 0 22 -58 41 -165 8 -45 -7 -88 -36 -100 -41 -17 -178 -23
-223 -9 -24 7 -46 11 -49 9 -2 -3 8 -34 24 -70 31 -74 104 -171 153 -205 29
-21 31 -25 18 -38 -14 -14 -19 -13 -52 4 -47 24 -116 93 -148 148 -26 45 -66
166 -66 200 0 26 -121 141 -131 124 -4 -6 -14 -8 -23 -5 -9 4 -16 3 -16 -1 0
-19 -83 -44 -152 -47 -41 -1 -83 -7 -94 -13 -34 -17 -89 -32 -122 -32 -17 0
-34 -4 -37 -10 -8 -12 -144 -7 -153 6 -10 16 -53 37 -60 30 -3 -4 2 -22 11
-40 l16 -34 -47 -6 c-26 -3 -78 -8 -117 -12 -38 -4 -81 -11 -95 -16 -16 -6
-26 -6 -28 1 -2 6 -14 6 -35 0 -44 -14 -108 -18 -101 -8 9 14 -21 10 -42 -6
-10 -8 -25 -15 -33 -15 -8 0 -26 -13 -40 -28 -40 -44 -80 -67 -93 -54 -6 6
-13 48 -16 94 -3 56 -11 92 -23 113 -57 93 21 227 90 154 l19 -21 7 24 c4 12
18 46 31 75 13 28 24 59 24 68 0 19 23 28 115 46 58 11 77 20 110 51 22 21 48
38 57 38 10 0 35 9 57 21 52 27 81 19 81 -22 0 -34 19 -38 38 -9 7 11 22 20
34 20 12 0 19 3 16 6 -4 3 3 15 14 26 26 26 102 33 123 11 15 -15 65 -11 65 5
0 4 -20 18 -43 32 -23 14 -124 106 -225 205 -178 176 -212 205 -199 171 4 -9
10 -23 13 -31 3 -8 2 -15 -3 -15 -6 0 -15 -53 -22 -117 -18 -190 -18 -213 -1
-214 8 -1 -10 -5 -40 -10 -66 -11 -201 -3 -291 17 -62 14 -67 17 -73 46 -7 35
-3 44 15 32 21 -13 129 -17 129 -5 0 6 -7 11 -15 11 -19 0 -19 19 0 26 8 4 15
17 15 30 0 13 5 24 10 24 6 0 10 18 10 40 0 29 4 40 15 40 12 0 15 15 15 78 0
47 5 83 12 90 9 9 7 12 -12 12 -29 0 -17 12 30 30 81 31 81 36 -6 74 -43 20
-86 40 -94 46 -8 6 -53 29 -100 51 -47 23 -97 50 -112 60 -14 11 -37 19 -50
19 -26 0 -104 45 -128 75 -8 10 -33 29 -55 43 -36 23 -49 26 -120 23 -58 -2
-87 -8 -106 -22 -14 -10 -29 -16 -32 -13 -8 9 -29 -35 -22 -46 3 -6 12 -10 20
-10 18 0 26 -15 19 -34 -5 -13 -9 -14 -32 -2 -36 18 -112 31 -112 18 0 -5 9
-21 20 -34 10 -14 16 -28 13 -32 -12 -11 -33 -80 -33 -106 0 -48 13 -70 55
-95 24 -14 47 -34 50 -45 3 -11 12 -20 19 -20 23 0 58 -48 63 -88 4 -28 12
-44 28 -52 28 -15 48 -5 40 21 -7 20 26 100 53 132 23 27 71 20 147 -19 85
-44 120 -69 196 -144 55 -54 59 -61 59 -103 0 -25 -4 -49 -10 -52 -5 -3 -10 2
-10 11 0 12 -11 6 -37 -23 -68 -73 -199 -95 -323 -53 -70 24 -445 205 -475
230 -14 12 -57 20 -150 29 -181 16 -355 23 -355 14 0 -4 18 -19 39 -32 21 -12
46 -37 56 -55 10 -17 28 -42 40 -56 13 -14 26 -40 30 -57 3 -18 15 -49 24 -69
21 -42 17 -74 -11 -81 -20 -6 -24 -18 -8 -28 11 -7 -6 -41 -35 -68 -20 -18
-20 -18 5 -11 14 3 29 10 35 15 5 5 30 9 56 9 38 0 48 -4 52 -20 3 -13 11 -18
21 -14 13 5 15 -8 13 -98 -1 -56 -6 -106 -11 -110 -10 -7 -11 -57 -1 -88 4
-12 2 -20 -5 -20 -16 0 -47 -32 -54 -57 -4 -13 -12 -23 -17 -23 -5 0 -9 -10
-9 -21 0 -21 -62 -89 -81 -89 -6 0 -8 -4 -5 -9 6 -9 -69 -41 -97 -41 -19 0
-23 -15 -7 -25 6 -4 8 -10 5 -15 -3 -5 3 -13 12 -19 10 -6 13 -11 7 -11 -16 0
-34 -46 -34 -85 0 -22 -8 -43 -20 -55 -12 -12 -18 -25 -14 -31 3 -6 -5 -27
-18 -47 -24 -37 -48 -85 -86 -173 -11 -26 -28 -55 -38 -66 -19 -18 -38 -58
-70 -148 -10 -27 -30 -61 -46 -75 -15 -13 -28 -28 -28 -33 0 -4 -10 -18 -22
-31 -31 -31 -57 -63 -93 -111 -16 -22 -39 -49 -50 -60 -11 -11 -31 -36 -45
-54 -49 -66 -203 -118 -314 -106 -62 7 -64 6 -147 -41 -98 -57 -96 -56 -157
-114 -88 -85 -121 -104 -202 -116 -90 -13 -106 -8 -218 67 -42 29 -89 61 -104
71 -15 10 -33 18 -39 18 -36 0 -144 77 -214 153 -130 138 -171 209 -155 268 5
19 11 58 15 87 6 46 5 52 -12 51 -38 -1 -78 -34 -81 -67 -2 -17 -16 -56 -32
-86 l-28 -56 37 -37 c44 -46 132 -150 146 -172 11 -17 57 -69 117 -132 21 -21
35 -39 30 -39 -4 0 1 -7 12 -15 10 -8 16 -20 13 -28 -3 -8 0 -20 6 -26 6 -6 8
-12 4 -12 -38 -7 -77 -29 -77 -44 0 -9 -6 -18 -14 -21 -8 -3 -17 -12 -20 -20
-4 -9 -2 -12 5 -8 8 4 9 -3 4 -25 -5 -24 -3 -31 8 -31 22 0 54 29 95 90 67 97
134 106 99 12 -33 -87 -34 -90 -5 -64 25 23 58 30 58 12 0 -16 -88 -100 -104
-100 -8 0 -17 6 -20 13 -5 10 -7 10 -12 0 -3 -7 -14 -13 -23 -13 -10 0 -26 -9
-36 -20 -17 -19 -17 -21 6 -43 17 -17 41 -26 84 -31 51 -6 74 -17 75 -36 0 -3
-20 -18 -45 -35 -39 -26 -45 -34 -40 -55 18 -76 18 -76 -24 -119 -23 -23 -41
-43 -41 -45 0 -3 -197 -209 -227 -238 -30 -28 -82 -68 -90 -68 -5 0 -25 -12
-44 -26 -19 -14 -44 -30 -57 -35 -12 -5 -22 -13 -22 -18 0 -6 -12 -17 -27 -25
-16 -8 -46 -30 -68 -50 -22 -19 -54 -37 -72 -41 -18 -3 -33 -10 -33 -15 0 -6
-7 -10 -15 -10 -8 0 -19 -8 -24 -18 -5 -10 -20 -23 -33 -30 -13 -7 -28 -23
-33 -35 -6 -12 -20 -26 -33 -32 -12 -5 -22 -18 -22 -27 0 -10 -7 -18 -16 -18
-8 0 -22 -6 -29 -13 -80 -73 -115 -112 -115 -128 0 -10 -7 -19 -15 -19 -8 0
-15 -3 -15 -7 0 -5 -29 -39 -65 -78 l-65 -69 0 -333 c0 -183 3 -333 6 -333 5
0 199 142 231 170 7 5 15 10 18 10 3 0 16 9 28 21 12 11 37 27 56 35 39 16 78
3 96 -33 6 -11 28 -41 48 -65 20 -23 37 -48 37 -54 0 -6 9 -19 20 -29 11 -10
20 -22 20 -28 0 -17 71 -78 83 -70 7 4 8 0 4 -11 -5 -13 5 -29 33 -56 22 -21
40 -43 40 -49 0 -5 9 -12 19 -16 24 -7 141 -118 141 -133 0 -13 58 -72 71 -72
5 0 9 -6 9 -13 0 -8 30 -43 66 -78 36 -35 69 -74 75 -87 5 -13 13 -21 18 -18
12 8 44 -30 37 -43 -4 -6 2 -18 12 -27 20 -17 57 -53 92 -90 11 -12 20 -26 20
-33 0 -6 8 -11 18 -11 10 0 23 -15 34 -40 9 -23 23 -40 32 -40 13 0 16 -14 16
-79 0 -84 8 -99 74 -144 24 -17 26 -23 26 -97 0 -70 -2 -80 -18 -80 -10 0 -36
-16 -57 -36 -40 -36 -40 -36 -45 -13 l-6 24 -25 -26 c-19 -20 -35 -26 -71 -28
-27 0 -62 -10 -80 -21 -40 -24 -69 -25 -108 -5 -17 9 -30 11 -30 6 0 -5 -26
-11 -57 -14 -79 -7 -147 -23 -151 -36 -5 -14 -32 -15 -32 -1 0 6 -17 10 -37
10 -21 0 -59 6 -84 14 -25 8 -80 17 -122 21 -42 4 -77 11 -77 16 0 5 -70 9
-155 9 -137 0 -158 -2 -187 -20 -22 -13 -51 -20 -85 -20 l-53 0 0 -180 0 -180
2879 0 2879 0 36 40 c20 22 40 40 46 40 5 0 48 38 96 85 47 47 91 86 98 86 6
1 37 0 69 -1 31 -1 57 2 57 7 0 4 18 17 40 27 22 11 40 23 40 28 0 4 5 8 12 8
6 0 19 7 29 16 9 8 43 19 76 24 56 8 59 7 86 -20 19 -21 27 -39 27 -64 0 -30
4 -36 20 -36 19 0 21 -6 19 -50 -2 -46 1 -54 30 -80 18 -17 36 -30 42 -30 5 0
9 -18 9 -40 l0 -40 2705 0 2705 0 0 4000 0 4000 -2261 0 -2261 0 7 -52 c4 -29
13 -62 20 -73 7 -12 15 -43 18 -70 7 -72 25 -193 36 -245 6 -25 12 -78 15
-119 4 -41 9 -77 14 -80 8 -7 38 -124 48 -189 4 -23 11 -45 15 -48 5 -3 9 -23
9 -45 0 -21 5 -39 10 -39 6 0 10 -19 10 -42 0 -40 9 -116 30 -258 6 -43 4 -61
-9 -85 -30 -54 -132 -140 -241 -204 -74 -43 -94 -55 -100 -61 -3 -3 -54 -18
-115 -32 -60 -15 -120 -30 -132 -33 -20 -6 -22 -3 -27 57 -11 124 -23 178 -37
178 -5 0 -9 36 -9 80 0 44 4 80 8 80 17 0 33 108 26 169 -6 58 0 160 31 471 8
80 19 206 25 280 6 74 15 176 20 227 6 50 10 101 10 112 0 21 -2 21 -529 21
l-529 0 -6 -87 c-10 -153 -18 -213 -27 -207 -5 3 -10 -1 -10 -8 -7 -82 -31
-160 -57 -187 -11 -11 -17 -9 -37 15 -13 15 -21 32 -18 37 7 11 -27 36 -50 37
-15 0 -18 8 -16 52 2 43 -1 54 -19 66 -12 8 -22 21 -22 28 0 10 -13 14 -40 14
l-40 0 0 -43 0 -43 40 4 40 4 0 -41 c0 -39 -1 -41 -31 -41 l-30 0 2 -91 c1
-56 -3 -95 -10 -102 -6 -6 -11 -19 -11 -29 0 -10 -6 -18 -14 -18 -9 0 -16 -27
-24 -97 -7 -54 -16 -123 -22 -153 -6 -30 -10 -65 -10 -78 0 -16 -4 -21 -13
-16 -8 5 -7 2 2 -9 12 -15 11 -17 -3 -17 -23 0 -20 -17 4 -23 21 -5 28 -37 8
-37 -6 0 -3 -7 8 -15 10 -8 14 -15 8 -15 -11 0 -129 129 -174 191 -14 19 -41
50 -60 69 -35 34 -38 45 -31 108 0 6 8 12 16 12 11 0 15 11 15 40 0 51 19 140
35 165 8 14 12 60 12 145 -1 88 2 125 11 128 7 2 12 21 12 43 0 21 5 39 10 39
6 0 10 17 10 38 0 21 9 48 20 62 11 14 20 33 20 43 0 16 -96 17 -1884 17
l-1884 0 6 -22z m3032 -629 c-6 -10 -7 -24 -4 -32 4 -13 -8 -16 -70 -19 -42
-2 -76 0 -76 5 0 4 7 7 15 7 8 0 19 9 25 20 6 11 18 20 28 21 16 0 15 1 -1 7
-16 7 -16 9 -3 27 9 11 16 29 16 40 0 16 7 13 40 -20 31 -30 37 -42 30 -56z
m-1563 -75 c-3 -3 -12 -4 -19 -1 -8 3 -5 6 6 6 11 1 17 -2 13 -5z m1 -35 c-19
-13 -28 -11 -28 5 0 9 7 12 21 9 16 -4 17 -8 7 -14z m1447 -9 c8 -13 -5 -13
-25 0 -13 8 -13 10 2 10 9 0 20 -4 23 -10z m-28 -46 c2 -13 1 -15 -4 -4 -3 8
-11 19 -17 23 -7 6 -6 7 4 4 8 -2 16 -12 17 -23z m519 15 c3 -6 1 -16 -5 -22
-8 -8 -11 -6 -11 7 0 12 -5 16 -16 12 -8 -3 -12 -2 -9 4 8 13 32 13 41 -1z
m-443 -14 c-3 -9 -8 -14 -10 -11 -3 3 -2 9 2 15 9 16 15 13 8 -4z m312 -10
c14 -13 25 -30 25 -38 0 -8 12 -20 28 -27 15 -7 22 -15 15 -17 -15 -5 -62 27
-63 43 0 6 -9 23 -21 38 -26 33 -16 34 16 1z m-358 -37 c-3 -8 -6 -5 -6 6 -1
11 2 17 5 13 3 -3 4 -12 1 -19z m436 -1 c4 3 7 -1 7 -11 0 -14 -4 -15 -20 -6
-11 6 -20 18 -20 28 1 16 1 16 14 0 7 -10 16 -15 19 -11z m-1322 -294 c11 -28
11 -28 20 -6 7 19 13 22 41 17 72 -14 59 -46 -22 -50 -38 -2 -53 2 -61 14 -9
14 -10 14 -6 -5 6 -27 -6 -37 -33 -28 -12 4 -20 15 -20 30 0 23 24 40 41 29 5
-3 9 2 9 10 0 26 20 18 31 -11z m489 -539 c-14 -36 -21 -26 -13 20 4 28 8 34
15 23 4 -9 4 -27 -2 -43z m20 -124 c0 -11 -7 -20 -15 -20 -18 0 -19 12 -3 28
16 16 18 15 18 -8z m1905 -147 c43 -54 67 -102 71 -143 2 -19 7 -73 12 -120 5
-47 6 -87 3 -90 -4 -3 -10 -12 -13 -21 -4 -10 -19 -16 -42 -17 -40 -2 -53 13
-60 69 -2 19 -18 64 -34 101 -17 36 -28 68 -26 71 9 8 -16 58 -26 52 -5 -3
-10 1 -10 9 0 10 6 13 15 10 18 -7 19 0 5 27 -7 13 -7 19 0 19 5 0 10 8 10 17
0 22 29 53 49 53 9 0 30 -17 46 -37z m-2118 -391 c6 -4 15 -23 20 -42 7 -26
15 -35 31 -35 30 -1 38 -11 56 -74 21 -70 20 -122 -1 -187 -16 -48 -20 -53
-43 -47 -14 3 -34 16 -45 29 -20 23 -21 23 -33 4 -6 -11 -12 -30 -12 -42 0
-13 -7 -34 -15 -48 -8 -14 -21 -42 -31 -62 -9 -21 -20 -38 -24 -38 -5 0 -11
-9 -15 -19 -3 -11 -20 -26 -38 -35 -18 -8 -47 -28 -64 -43 -17 -15 -49 -44
-72 -63 -22 -19 -41 -41 -41 -47 0 -7 -6 -13 -13 -13 -7 0 -26 -12 -43 -27
-44 -40 -70 -53 -101 -53 -16 0 -34 -4 -42 -9 -8 -5 -26 -5 -44 2 -22 7 -35 7
-50 -2 -14 -9 -22 -10 -30 -2 -26 26 -38 12 -31 -34 5 -38 4 -45 -10 -45 -9 0
-16 5 -16 11 0 5 -13 15 -30 20 -22 8 -30 17 -30 35 0 13 4 24 8 24 13 0 32
63 32 103 0 26 6 41 20 49 11 7 20 17 20 23 0 6 15 26 33 45 50 52 87 105 87
123 0 9 6 20 14 24 8 4 16 15 18 23 2 8 11 21 21 28 9 7 17 19 17 25 0 7 15
18 33 26 31 14 137 109 137 124 0 4 12 26 26 48 22 36 29 40 56 37 24 -4 31 0
39 19 5 12 13 23 19 23 5 0 12 11 16 25 3 14 10 25 15 25 5 0 9 11 9 25 0 17
6 25 18 25 9 1 28 7 42 15 27 16 68 19 87 7z m2167 -41 c3 -5 -5 -8 -19 -8
-14 0 -22 3 -19 8 3 5 11 9 19 9 8 0 16 -4 19 -9z m105 -135 c2 -99 -5 -78
-11 34 -3 52 -2 82 2 65 4 -16 8 -61 9 -99z m-398 -91 c5 4 9 1 9 -4 0 -6 -9
-11 -21 -11 -15 0 -19 4 -15 16 3 9 7 21 7 27 1 7 4 2 6 -11 2 -12 9 -20 14
-17z m379 -45 c-17 -32 -21 -19 -7 26 9 30 13 34 15 17 2 -12 -2 -32 -8 -43z
m-101 6 c-7 -14 -16 -26 -21 -26 -4 0 -8 -7 -8 -15 0 -8 -4 -15 -9 -15 -5 0
-16 -3 -25 -6 -24 -9 19 68 47 82 28 16 31 13 16 -20z m-1693 -11 c-17 -13
-18 -15 -3 -15 9 0 17 -7 17 -15 0 -8 5 -15 10 -15 6 0 10 -47 10 -120 l0
-120 110 0 c90 0 110 3 110 15 0 18 47 65 65 65 8 0 15 5 15 10 0 6 18 10 40
10 22 0 40 -4 40 -10 0 -5 -13 -10 -30 -10 -29 0 -30 -1 -30 -50 0 -27 -4 -50
-10 -50 -5 0 -10 5 -10 10 0 6 -4 10 -10 10 -5 0 -10 -18 -10 -40 0 -22 -4
-40 -9 -40 -5 0 -12 -9 -16 -19 -3 -11 -19 -22 -35 -26 -47 -10 -45 -32 5 -38
36 -5 154 -61 190 -89 25 -21 87 -58 95 -58 5 0 15 -6 22 -13 7 -7 35 -28 63
-47 41 -28 61 -35 114 -38 42 -3 62 -1 57 6 -5 9 29 24 164 73 31 11 113 33
245 66 92 24 123 26 378 30 267 5 421 -4 457 -27 24 -15 -34 -23 -113 -15
-203 19 -404 -18 -612 -114 -118 -54 -119 -63 -4 -63 47 0 74 7 132 35 164 79
317 116 476 117 46 0 112 5 146 11 53 9 77 8 156 -10 102 -22 221 -65 238 -85
8 -10 4 -11 -19 -8 -41 6 -38 -1 13 -27 50 -26 167 -134 167 -155 0 -8 21 -31
48 -52 41 -34 152 -142 152 -149 0 -1 -11 0 -24 2 -14 3 -50 33 -82 69 -32 35
-64 64 -71 64 -7 0 -13 5 -13 10 0 6 -9 10 -20 10 -24 0 -25 -7 -5 -53 17 -42
7 -55 -22 -28 -24 23 -104 32 -111 13 -2 -7 1 -18 7 -26 8 -10 4 -12 -19 -8
-17 2 -30 9 -30 14 0 13 -26 38 -39 38 -5 0 -18 14 -28 30 -9 17 -21 30 -25
30 -4 0 -8 5 -8 10 0 31 -106 126 -131 118 -5 -2 7 -21 27 -43 20 -22 45 -58
55 -80 15 -34 16 -47 6 -90 -6 -28 -10 -105 -8 -175 2 -117 1 -131 -27 -211
-16 -47 -51 -129 -77 -182 -55 -115 -57 -150 -9 -155 19 -2 38 3 48 13 9 9 28
18 43 21 16 2 38 6 51 9 12 3 22 1 22 -5 0 -5 18 -10 40 -10 22 0 40 -4 40
-10 0 -5 18 -10 40 -10 29 0 40 -4 40 -15 0 -8 9 -15 19 -15 11 0 23 -5 26
-11 4 -5 12 -8 18 -6 6 2 24 -9 39 -25 26 -27 28 -34 28 -113 0 -47 -4 -85
-10 -85 -5 0 -12 -17 -16 -37 -4 -20 -16 -46 -26 -58 -11 -11 -26 -35 -35 -52
-8 -18 -22 -33 -29 -33 -9 0 -14 -11 -14 -30 0 -23 -4 -30 -20 -30 -17 0 -20
-7 -20 -39 0 -21 -7 -57 -15 -80 -8 -23 -15 -43 -15 -46 -1 -2 -4 -14 -7 -25
-3 -11 -9 -20 -13 -20 -5 0 -16 -15 -25 -32 -15 -30 -15 -34 2 -45 9 -7 20
-13 25 -13 4 0 8 -4 8 -10 0 -5 -6 -10 -13 -10 -7 0 -19 -17 -26 -37 -8 -21
-20 -43 -27 -51 -8 -7 -14 -27 -14 -43 0 -24 -4 -29 -25 -29 -14 0 -25 -6 -25
-13 0 -8 -25 -38 -55 -68 -30 -30 -55 -60 -55 -66 0 -7 -6 -13 -13 -13 -8 0
-19 -10 -24 -23 -6 -13 -29 -45 -52 -71 -23 -26 -41 -51 -41 -57 0 -5 -8 -9
-18 -9 -18 0 -56 -63 -68 -112 -3 -16 -10 -25 -15 -22 -5 3 -10 -2 -10 -10 -2
-20 -3 -25 -17 -59 -7 -16 -12 -32 -12 -37 0 -4 -6 -20 -14 -34 -8 -16 -11
-39 -7 -59 l7 -32 109 -7 c60 -4 116 -10 125 -13 23 -10 -8 -25 -51 -25 -33 0
-37 -3 -45 -32 -4 -18 -8 -61 -8 -94 -1 -53 -5 -65 -28 -89 -16 -15 -28 -36
-28 -45 0 -10 -23 -41 -52 -70 l-52 -53 -89 7 c-113 9 -207 52 -207 95 0 23
-86 191 -112 219 -18 18 -20 25 -9 31 7 5 10 14 7 20 -4 6 -4 11 1 11 13 0 12
47 -1 48 -6 1 -54 10 -106 21 -52 11 -133 21 -178 21 -68 0 -97 5 -156 29 -78
31 -265 68 -275 54 -3 -5 -29 -8 -58 -8 -58 0 -69 -6 -58 -32 4 -10 8 -33 10
-51 2 -30 -2 -34 -43 -52 -25 -11 -52 -29 -59 -40 -8 -11 -22 -20 -32 -20 -10
0 -44 -9 -77 -21 -75 -26 -119 -15 -165 39 l-31 37 5 -57 6 -58 -32 -2 c-46
-2 -51 -3 -64 -11 -8 -5 -28 3 -50 21 -21 17 -62 35 -93 42 -30 7 -63 17 -72
22 -13 6 -23 3 -38 -12 -11 -11 -29 -20 -40 -20 -25 0 -40 -29 -40 -75 0 -20
-7 -43 -15 -52 -8 -8 -12 -19 -9 -24 20 -32 10 -61 -28 -89 -21 -16 -34 -31
-28 -35 7 -4 7 -12 0 -25 -15 -28 -12 -38 11 -45 21 -7 21 -7 -2 -21 -13 -7
-32 -17 -41 -20 -37 -13 -16 -24 45 -24 61 0 62 0 33 -15 -15 -8 -36 -15 -46
-15 -31 0 -98 28 -120 50 -12 12 -24 19 -27 16 -8 -7 33 -40 77 -63 19 -10 37
-21 40 -25 3 -3 22 -9 43 -13 20 -4 37 -12 37 -17 0 -14 -56 0 -99 25 -46 27
-45 27 -112 84 -31 26 -72 60 -92 76 -41 31 -83 97 -102 160 -27 89 42 191
161 238 77 30 221 38 296 16 90 -26 184 -38 210 -27 13 5 62 21 111 35 l87 26
0 144 0 144 -34 63 c-18 35 -49 92 -68 128 -142 264 -196 691 -133 1045 14 77
34 172 45 210 62 217 64 231 46 278 -9 24 -48 99 -86 165 -39 67 -70 124 -70
126 0 2 -15 30 -33 63 -18 32 -38 77 -45 101 l-13 43 -26 -52 c-14 -28 -34
-54 -45 -57 -10 -2 -18 -9 -18 -15 0 -6 -10 -21 -22 -34 -23 -24 -78 -32 -78
-11 0 6 -8 20 -17 30 -9 10 -18 29 -20 41 -2 12 -7 31 -12 42 -6 11 -13 55
-16 97 -4 43 -11 80 -16 84 -5 3 -7 10 -3 15 3 5 -2 21 -11 35 -13 20 -19 23
-31 13 -8 -6 -27 -9 -44 -5 -20 4 -30 2 -30 -7 0 -6 -18 -29 -40 -50 -22 -20
-40 -43 -40 -51 0 -7 -9 -21 -19 -30 -11 -10 -25 -31 -31 -47 -7 -16 -16 -29
-21 -29 -5 0 -9 -8 -9 -17 0 -9 -6 -24 -14 -32 -8 -9 -24 -41 -37 -71 -12 -30
-31 -66 -41 -79 -10 -13 -18 -29 -18 -35 0 -6 -19 -36 -41 -66 -23 -30 -48
-69 -57 -87 -11 -24 -28 -37 -64 -50 -26 -9 -48 -23 -48 -30 0 -7 -11 -13 -24
-13 -13 0 -28 -6 -34 -13 -12 -14 -102 -11 -102 4 0 5 -7 9 -15 9 -11 0 -15
11 -15 38 0 21 -11 61 -25 88 -14 27 -25 64 -25 82 0 17 -4 32 -10 32 -6 0
-10 33 -10 80 0 44 3 80 8 80 4 0 8 36 10 80 2 58 -1 80 -10 80 -29 0 14 19
112 50 57 18 133 46 168 61 35 16 73 29 84 29 27 0 201 89 302 154 45 29 106
77 137 107 85 82 188 209 195 242 3 15 13 31 22 34 10 3 67 27 127 54 112 49
171 64 131 34z m1634 11 c0 -3 -4 -8 -10 -11 -5 -3 -10 -1 -10 4 0 6 5 11 10
11 6 0 10 -2 10 -4z m-198 -41 c6 -13 14 -23 17 -21 3 2 29 -5 56 -14 48 -17
49 -18 15 -17 -51 0 -120 34 -120 57 0 28 18 25 32 -5z m258 -36 c-13 -31 -34
-38 -44 -14 -3 8 -2 15 2 15 4 0 16 15 27 33 16 26 20 29 23 14 2 -10 -2 -32
-8 -48z m67 4 c-22 -40 -75 -91 -119 -114 -53 -27 -198 -25 -198 3 0 6 13 7
33 2 54 -12 132 -7 165 10 48 25 98 72 112 106 7 17 15 29 17 26 2 -2 -2 -17
-10 -33z m-177 -7 c0 -3 -4 -8 -10 -11 -5 -3 -10 -1 -10 4 0 6 5 11 10 11 6 0
10 -2 10 -4z m-140 -21 c7 -8 8 -15 2 -15 -5 0 -15 7 -22 15 -7 8 -8 15 -2 15
5 0 15 -7 22 -15z m170 -14 c0 -12 -45 -22 -64 -15 -9 3 -16 1 -16 -5 0 -6
-11 -11 -25 -11 -44 0 -27 19 23 25 26 4 52 8 57 10 18 6 25 5 25 -4z m44 -10
c3 -4 -6 -13 -20 -19 -23 -11 -24 -10 -14 8 11 21 25 26 34 11z m-81 -38 c-7
-2 -21 -2 -30 0 -10 3 -4 5 12 5 17 0 24 -2 18 -5z m1074 -915 c29 -10 62 -18
73 -18 11 0 20 -5 20 -10 0 -6 11 -15 25 -20 14 -5 25 -13 25 -18 0 -5 11 -14
24 -21 13 -8 32 -31 42 -52 9 -22 21 -39 26 -39 4 0 8 -18 8 -40 0 -33 -4 -40
-19 -40 -11 0 -21 9 -24 21 -5 17 -11 20 -31 15 -30 -7 -35 10 -13 45 9 17 9
23 0 26 -7 2 -17 20 -23 39 -10 31 -15 35 -36 30 -13 -4 -24 -3 -24 2 0 12
-46 32 -73 32 -13 0 -32 7 -44 15 -16 12 -22 12 -26 2 -4 -7 -6 -6 -6 5 -1 11
-14 18 -41 23 -22 4 -40 11 -40 16 0 16 100 7 157 -13z m-3290 -818 c21 0 22
-3 17 -71 -5 -54 -3 -74 7 -80 12 -7 12 -9 0 -9 -11 0 -12 -12 -7 -53 4 -39 2
-59 -9 -73 -17 -22 -20 -54 -5 -54 6 0 10 -12 9 -27 0 -25 -1 -26 -9 -8 -8 19
-9 19 -9 -2 -1 -12 4 -25 9 -28 7 -4 6 -14 -2 -28 -7 -12 -16 -51 -20 -87 -5
-36 -10 -74 -12 -85 -2 -11 -4 -25 -5 -31 -3 -25 -79 -94 -104 -94 -78 0 -234
116 -281 210 -53 105 -58 205 -14 302 59 129 159 193 348 222 14 2 34 2 45 0
11 -2 30 -4 42 -4z m6333 -1015 l0 -105 80 0 80 0 0 -35 c0 -28 -8 -42 -40
-71 -36 -33 -40 -41 -40 -85 l0 -49 -120 0 -120 0 0 79 c0 54 -4 81 -12 84
-10 3 -10 9 0 26 6 11 12 28 12 36 0 9 9 15 25 15 24 0 25 1 23 73 -3 97 19
137 74 137 l38 0 0 -105z m-2757 -505 c4 -15 0 -20 -13 -20 -13 0 -17 5 -13
20 3 11 9 20 13 20 4 0 10 -9 13 -20z m-2175 -134 c183 -2 336 -6 339 -10 4
-3 -5 -6 -19 -6 -14 0 -39 -3 -56 -6 -27 -6 -30 -9 -21 -25 14 -26 -8 -33 -78
-25 -32 4 -60 2 -67 -3 -12 -10 -87 -32 -118 -34 -10 -1 -19 -1 -19 -2 -1 0
-5 -67 -10 -150 -11 -208 -20 -263 -51 -308 -15 -21 -24 -44 -22 -52 4 -9 -7
-22 -26 -33 -17 -11 -28 -22 -23 -24 4 -3 1 -2 -7 0 -8 3 -53 8 -100 12 -95 8
-179 36 -228 77 -27 22 -37 41 -48 93 -26 113 -27 151 -7 203 19 51 115 166
176 212 20 16 37 31 37 34 0 3 -14 14 -30 23 -42 24 -38 39 8 33 20 -3 187 -7
370 -9z m727 -150 c41 -13 50 -20 51 -40 1 -15 -3 -23 -10 -20 -6 2 -46 10
-88 18 -63 10 -80 11 -88 0 -11 -12 2 -234 17 -291 3 -13 1 -23 -6 -23 -5 0
-16 -18 -22 -40 -7 -22 -16 -40 -20 -40 -10 0 -29 -57 -29 -86 0 -23 -2 -25
-73 -39 -50 -10 -231 35 -272 67 -65 51 -101 194 -74 292 23 82 146 172 289
211 69 18 254 13 325 -9z m425 -126 c0 -16 -69 -40 -114 -39 l-41 0 65 24 c74
26 90 29 90 15z m-2132 -175 c28 -14 63 -25 78 -25 38 0 53 -11 51 -34 -2 -15
9 -22 46 -32 63 -16 74 -29 20 -20 -27 4 -43 2 -43 -4 0 -5 9 -10 19 -10 11 0
23 -5 26 -10 4 -6 15 -8 24 -5 10 3 24 -1 31 -10 7 -8 18 -15 26 -15 17 0 46
-29 38 -41 -3 -5 2 -12 10 -15 24 -9 19 -24 -7 -24 -20 0 -64 23 -77 41 -3 3
-32 21 -65 39 -33 19 -85 56 -116 84 -30 28 -71 63 -90 78 -43 34 -34 35 29 3z
m952 -315 c22 -11 48 -20 60 -20 11 0 20 -5 20 -11 0 -7 -9 -9 -22 -5 -13 3
-30 6 -39 6 -8 0 -30 11 -49 25 -41 30 -24 33 30 5z m698 -65 c70 -17 102 -42
42 -33 -23 3 -30 1 -30 -12 0 -9 -5 -21 -12 -28 -9 -9 -6 -12 15 -12 15 0 27
-3 27 -8 0 -10 38 -26 135 -57 90 -30 109 -41 50 -31 -22 4 -49 8 -59 7 -10 0
-32 7 -49 15 -16 9 -26 11 -23 5 22 -34 -67 21 -132 83 -24 22 -58 61 -75 85
l-31 45 35 -21 c19 -12 67 -29 107 -38z m-505 -22 c21 -11 64 -17 127 -19 68
-3 95 -7 95 -16 0 -7 -19 -17 -42 -22 -24 -6 -43 -13 -43 -18 0 -4 -5 -8 -12
-8 -16 0 -127 56 -158 80 -31 24 -10 26 33 3z m343 -198 c15 -20 25 -37 23
-40 -6 -5 -72 27 -81 40 -14 19 -8 35 11 35 11 0 32 -16 47 -35z m271 -161 c7
-19 -6 -33 -37 -39 -36 -7 -53 12 -32 36 20 23 60 25 69 3z"/>
<path d="M6195 5990 c4 -6 11 -8 16 -5 14 9 11 15 -7 15 -8 0 -12 -5 -9 -10z"/>
<path d="M6210 5960 c0 -5 5 -10 10 -10 6 0 10 5 10 10 0 6 -4 10 -10 10 -5 0
-10 -4 -10 -10z"/>
<path d="M6280 5901 c0 -5 5 -13 10 -16 6 -3 10 -2 10 4 0 5 -4 13 -10 16 -5
3 -10 2 -10 -4z"/>
<path d="M6250 5862 c6 -13 14 -21 18 -18 3 4 -2 14 -12 24 -18 16 -18 16 -6
-6z"/>
<path d="M6305 5718 c-28 -15 -28 -14 -20 -37 9 -30 43 -27 51 5 8 32 -5 46
-31 32z"/>
<path d="M4735 4900 c28 -12 65 -12 65 0 0 6 -19 10 -42 9 -33 0 -38 -2 -23
-9z"/>
<path d="M4603 4854 c-24 -14 -43 -31 -43 -38 0 -8 -8 -16 -17 -18 -10 -3 -28
-25 -41 -49 -13 -25 -15 -33 -5 -19 30 43 117 121 141 126 12 4 22 10 22 15 0
14 -12 11 -57 -17z"/>
<path d="M4967 4811 c12 -11 26 -21 30 -21 4 0 24 -16 43 -35 19 -19 37 -35
41 -35 3 0 30 -22 59 -50 52 -49 70 -59 70 -40 0 6 -4 10 -8 10 -4 0 -12 14
-17 32 -6 17 -19 36 -30 42 -11 6 -22 13 -25 16 -3 3 -27 16 -55 30 -27 13
-52 27 -55 31 -3 3 -21 14 -40 24 l-35 17 22 -21z"/>
<path d="M5745 4740 c-13 -6 -15 -9 -5 -9 8 0 22 4 30 9 18 12 2 12 -25 0z"/>
<path d="M5257 4614 c-8 -8 1 -24 14 -24 5 0 9 7 9 15 0 15 -12 20 -23 9z"/>
<path d="M5080 3844 c0 -6 6 -19 14 -29 14 -19 15 -19 35 -1 24 22 20 36 -5
15 -14 -11 -18 -11 -30 6 -8 10 -14 14 -14 9z"/>
<path d="M5741 3821 c-36 -10 -47 -33 -31 -70 10 -24 19 -31 40 -31 15 0 33 7
40 15 16 19 5 34 -12 17 -16 -16 -48 -15 -48 1 0 8 12 19 27 26 21 10 28 9 34
-1 6 -9 9 -4 9 13 0 15 -7 29 -16 33 -9 3 -16 6 -17 5 -1 -1 -13 -4 -26 -8z"/>
<path d="M5630 2838 c-18 -49 -40 -90 -63 -115 -24 -27 -18 -38 16 -30 32 9
75 78 79 128 4 52 -15 62 -32 17z"/>
<path d="M5081 2531 l-35 -18 37 -5 c35 -4 47 5 47 33 0 13 -10 11 -49 -10z"/>
<path d="M5126 2475 c4 -8 11 -15 16 -15 6 0 5 6 -2 15 -7 8 -14 15 -16 15 -2
0 -1 -7 2 -15z"/>
<path d="M5615 2479 c4 -8 15 -22 23 -31 13 -15 11 -20 -14 -43 -16 -15 -53
-38 -82 -52 -79 -37 -161 -31 -262 20 -41 21 -85 48 -97 60 -13 11 -23 16 -23
11 1 -13 76 -67 140 -100 47 -25 65 -28 140 -28 96 0 148 20 194 74 l26 31 35
-27 c57 -43 51 -21 -10 37 -58 55 -84 73 -70 48z"/>
<path d="M5740 7960 c0 -22 5 -40 10 -40 6 0 10 18 10 40 0 22 -4 40 -10 40
-5 0 -10 -18 -10 -40z"/>
<path d="M3235 7200 c-4 -7 -15 -10 -25 -7 -13 3 -17 0 -13 -9 3 -8 8 -14 12
-14 12 1 44 30 39 36 -3 3 -9 0 -13 -6z"/>
<path d="M3160 7155 c-7 -8 -8 -15 -2 -15 5 0 15 7 22 15 7 8 8 15 2 15 -5 0
-15 -7 -22 -15z"/>
<path d="M3117 7102 c3 -7 9 -10 12 -5 3 4 10 11 15 15 4 4 -1 6 -12 5 -12 -1
-18 -6 -15 -15z"/>
<path d="M356 6945 c4 -8 10 -12 15 -9 14 8 10 24 -6 24 -9 0 -12 -6 -9 -15z"/>
<path d="M5313 6013 c9 -2 25 -2 35 0 9 3 1 5 -18 5 -19 0 -27 -2 -17 -5z"/>
<path d="M5822 5670 c0 -14 2 -19 5 -12 2 6 2 18 0 25 -3 6 -5 1 -5 -13z"/>
<path d="M3228 5648 c9 -9 15 -9 24 0 9 9 7 12 -12 12 -19 0 -21 -3 -12 -12z"/>
<path d="M1310 5279 c0 -32 -6 -46 -25 -61 -25 -19 -34 -48 -15 -48 18 0 115
42 133 57 9 9 17 22 17 30 0 7 -8 17 -17 20 -10 4 -29 15 -42 25 -38 29 -51
23 -51 -23z"/>
<path d="M1160 5279 c0 -5 5 -7 10 -4 6 3 10 8 10 11 0 2 -4 4 -10 4 -5 0 -10
-5 -10 -11z"/>
<path d="M856 4903 c-8 -16 -22 -36 -31 -43 -48 -40 -57 -124 -12 -113 41 10
68 5 93 -18 28 -26 25 -28 63 41 l29 53 -34 33 c-18 19 -37 34 -41 34 -3 0
-17 9 -29 21 l-22 21 -16 -29z"/>
<path d="M0 4490 l0 -331 57 39 c52 35 126 97 221 183 17 16 32 35 32 42 0 8
-4 7 -10 -3 -6 -9 -10 -10 -10 -3 0 6 4 15 10 18 6 3 10 14 10 23 0 13 -2 14
-9 4 -6 -10 -10 -9 -14 7 -3 15 -13 21 -31 21 -20 0 -30 8 -43 34 -9 19 -24
37 -34 39 -12 3 -19 14 -19 29 0 16 -16 38 -50 67 -27 24 -50 50 -50 58 0 18
-36 90 -50 98 -7 4 -10 -104 -10 -325z"/>
<path d="M6080 229 c0 -5 5 -7 10 -4 6 3 10 8 10 11 0 2 -4 4 -10 4 -5 0 -10
-5 -10 -11z"/>
</g>
</svg>
