<svg width="395" height="251" viewBox="0 0 395 251" fill="none" xmlns="http://www.w3.org/2000/svg">
<path d="M269 89.9086L288 62.4086C296.833 60.5753 320.633 54.7324 343 63.9086C362.5 71.9086 363.5 172.909 353.5 181.909C345.92 188.731 335 194.909 305.5 186.409C296.167 183.72 290.853 182.245 288.087 181.527C288.058 181.656 288.029 181.783 288 181.909C285.582 181.103 283.858 180.431 288.087 181.527C292.194 163.3 294.024 120.096 269 89.9086Z" fill="#24DE85"/>
<path d="M265.925 82.3586C268.421 79.8628 271.197 77.7657 273.955 75.579C275.361 74.4638 276.613 73.2165 277.899 71.9691C278.405 71.4788 279.011 71.3104 279.237 70.6308" stroke="#333333" stroke-width="3" stroke-linecap="round"/>
<path d="M279.554 70.9478C280 70.9973 280.443 71.3432 280.752 71.6522C282.235 73.135 283.664 74.6094 285.242 76.0016C288.355 78.7483 291.182 81.0383 293.924 84.2956C297.805 88.9067 300.292 95.1848 302.376 100.743" stroke="#333333" stroke-width="3" stroke-linecap="round"/>
<path d="M282.09 61.4388C282.09 63.2431 283.821 64.8945 284.661 66.4046C286.099 68.9887 287.425 71.6509 288.747 74.2935C289.472 75.7436 290.349 77.1195 290.965 78.6254C291.177 79.143 292.164 81.6149 292.55 80.4568" stroke="#333333" stroke-width="3" stroke-linecap="round"/>
<path d="M281.773 61.4388C284.455 61.4388 287.012 60.5745 289.697 60.4879C293.616 60.3615 297.502 59.5166 301.407 59.2376C308.459 58.7339 315.34 58.5861 322.415 58.5861C327.903 58.5861 332.796 58.4499 338.017 60.3294C340.562 61.2456 342.973 62.5038 345.483 63.3406" stroke="#333333" stroke-width="3" stroke-linecap="round"/>
<path d="M345.483 63.6575C347.406 63.8712 349.298 67.7002 350.097 69.1164C351.432 71.4806 351.589 74.2162 352.457 76.7236C353.855 80.7646 354.992 85.1049 356.19 89.2262C357.438 93.5206 358.122 97.9554 358.972 102.327C361.321 114.407 362.283 151.401 362.283 139.096" stroke="#333333" stroke-width="3" stroke-linecap="round"/>
<path d="M264.974 82.9925C265.847 83.0895 266.909 83.947 267.58 84.366C270.366 86.1045 272.566 88.1009 275.099 90.1066C277.613 92.0965 278.116 95.1153 279.872 97.5729" stroke="#333333" stroke-width="3" stroke-linecap="round"/>
<path d="M264.974 88.3809C265.144 88.9763 269.651 86.9275 270.046 86.7961C270.41 86.6745 272.484 86.4791 271.313 86.4791" stroke="#333333" stroke-width="3" stroke-linecap="round"/>
<path d="M263.706 89.6488C267.316 91.4536 270.491 93.2636 273.356 96.129C274.997 97.7698 276.014 100.383 277.653 101.694" stroke="#333333" stroke-width="3" stroke-linecap="round"/>
<path d="M267.827 94.0863C266.59 95.0756 264.641 95.5595 263.248 96.4459C262.101 97.1759 264.818 97.5746 265.467 97.8899C267.62 98.9357 269.101 100.226 270.838 101.834C271.145 102.118 273.557 103.962 273.215 103.278" stroke="#333333" stroke-width="3" stroke-linecap="round"/>
<path d="M294.135 115.64C293.928 113.57 292.05 112.356 290.824 110.886C289.609 109.427 289.089 108.25 287.443 107.047C285.152 105.371 281.042 105.243 278.287 105.18C275.705 105.121 273.225 105.18 270.679 105.18C268.011 105.18 265.66 107.129 263.706 108.737C262.261 109.928 261.877 113.078 261.523 114.76C261.354 115.559 260.854 117.066 260.854 115.323" stroke="#333333" stroke-width="3" stroke-linecap="round"/>
<path d="M264.657 118.176C264.657 111.519 276.824 107.2 281.139 112.083C282.909 114.085 284.196 118.06 287.003 118.792C289.087 119.336 291.739 119.117 293.114 117.242C293.299 116.99 294.592 114.479 293.818 115.64" stroke="#333333" stroke-width="3" stroke-linecap="round"/>
<path d="M254.514 125.783C254.514 123.824 253.181 119.62 254.585 118C254.895 117.641 258.571 118.512 259.233 118.475C261.218 118.365 262.983 118.127 264.974 118.422C266.048 118.581 271.201 118.596 271.56 119.831C272.111 121.728 271.098 124.178 270.063 125.73C269.278 126.908 268.94 126.831 270.239 127.227C273.901 128.341 279.238 131.534 279.238 135.996C279.238 139.104 273.587 137.828 271.49 137.828C269.839 137.828 270.169 137.865 271.49 138.831C273.019 139.951 273.94 141.991 272.652 143.692C272.087 144.437 266.593 147.77 266.26 145.1C266.1 143.823 266.242 142.447 266.242 141.156C266.242 140.254 266.29 142.294 266.312 142.477C266.526 144.248 265.765 143.85 264.234 143.85C262.45 143.85 260.666 143.85 258.881 143.85C256.216 143.85 253.778 143.487 251.168 142.899C250.259 142.694 248.218 142.774 247.735 141.755C247.095 140.404 248.043 138.273 248.65 137.106C249.648 135.187 250.108 133.174 250.887 131.171C251.214 130.331 251.661 129.587 252.295 128.953C252.743 128.505 254.506 127.056 252.929 128.002" stroke="#333333" stroke-width="3" stroke-linecap="round"/>
<path d="M373.376 92.5015C371.127 91.7817 369.706 95.0808 368.886 96.851C367.839 99.112 366.018 102.623 366.139 105.163C366.289 108.31 369.883 108.207 372.355 107.962C374.727 107.728 376.226 106.451 377.814 104.863C378.033 104.645 379.146 103.102 378.536 103.807C377.626 104.857 375.313 106.258 375.313 107.857C375.313 108.288 376.928 108.456 377.25 108.667C378.273 109.336 379.339 110.131 380.033 111.132C382.106 114.127 387.249 113.374 389.788 111.713C391.066 110.878 392.324 110.006 392.641 108.42C393.096 106.147 390.774 104.757 389.542 103.208C387.257 100.336 385.262 97.9495 381.952 96.129C381.181 95.7048 378.786 95.0802 378.448 94.4033" stroke="#333333" stroke-width="3" stroke-linecap="round"/>
<path d="M365.452 108.35C364.671 109.229 364.836 111.649 364.818 112.717C364.769 115.793 368.036 116.826 370.647 117.489C372.948 118.073 375.775 118.242 377.603 116.415C379.026 114.991 378.251 112.488 377.18 111.202" stroke="#333333" stroke-width="3" stroke-linecap="round"/>
<path d="M371.158 119.127C369.487 120.798 367.104 121.345 364.818 121.345C364.239 121.345 361.394 120.711 363.234 120.711" stroke="#333333" stroke-width="3" stroke-linecap="round"/>
<path d="M362.283 126.1C366.293 127.55 371.588 127.851 374.627 124.357C375.535 123.312 376.236 122.222 376.617 120.888C376.703 120.584 377.649 117.947 376.863 119.127" stroke="#333333" stroke-width="3" stroke-linecap="round"/>
<path d="M282.724 117.225C282.724 120.293 284.693 123.35 286.228 125.941C288.282 129.406 289.645 132.986 289.997 137.035C290.167 138.993 290.965 140.625 290.965 142.653C290.965 143.422 291.022 147.541 291.282 147.02" stroke="#333333" stroke-width="3" stroke-linecap="round"/>
<path d="M287.479 150.189C287.479 153.744 287.9 158.29 289.38 161.6C289.69 162.293 289.689 163.171 290.085 163.819C290.733 164.879 295.361 163.656 296.389 163.572C299.705 163.301 303.156 163.53 306.426 162.868C309.662 162.213 312.985 161.679 316.252 161.213C324.797 159.992 333.234 159.698 341.856 159.698C346.658 159.698 351.278 160.091 355.978 161.142C357.525 161.488 358.963 161.966 360.451 162.481C361.599 162.878 360.171 162.612 359.747 162.551" stroke="#333333" stroke-width="3" stroke-linecap="round"/>
<path d="M288.43 150.189C289.317 150.189 290.078 150.168 290.948 149.943C295.309 148.815 299.709 147.668 303.926 146.069C306.104 145.242 308.281 144.404 310.441 143.533C314.101 142.057 318.09 141.867 321.993 141.702C332.599 141.254 342.863 142.419 353.408 143.463C356.691 143.788 359.97 144.147 363.251 144.484C363.754 144.536 365.351 144.642 365.734 144.977C366.843 145.947 366.695 148.833 366.72 150.189C366.766 152.661 366.444 154.499 365.629 156.828C365.199 158.054 365.081 159.947 363.868 158.431" stroke="#333333" stroke-width="3" stroke-linecap="round"/>
<path d="M307.131 149.238C307.131 151.78 306.957 154.336 306.338 156.81C306.086 157.818 305.647 158.797 305.563 159.839C305.507 160.543 305.488 161.63 305.229 160.332" stroke="#333333" stroke-width="3" stroke-linecap="round"/>
<path d="M290.965 166.038C290.965 169.308 292.233 172.467 292.233 175.811C292.233 177.478 292.662 179.886 291.758 181.393C290.859 182.89 290.903 182.424 292.251 183.031C293.964 183.801 295.767 184.421 297.463 185.232C298.99 185.962 300.408 186.75 301.601 187.944C302.702 189.044 302.996 187.529 303.644 186.5C304.936 184.448 306.338 181.962 307.131 179.667C307.385 178.931 307.765 175.761 307.765 176.498" stroke="#333333" stroke-width="3" stroke-linecap="round"/>
<path d="M303.327 187.908C305.425 188.902 308.09 188.875 310.371 189.106C313.342 189.406 316.422 189.176 319.404 189.176C324.019 189.176 328.633 189.702 333.28 189.476C338.404 189.226 343.508 189.176 348.653 189.176C349.68 189.176 352.463 189.176 349.604 189.176" stroke="#333333" stroke-width="3" stroke-linecap="round"/>
<path d="M356.894 164.77C358.138 169.51 357.306 173.947 356.119 178.523C355.727 180.038 354.869 181.358 354.376 182.837C353.996 183.979 353.401 184.95 352.844 186.007C352.312 187.018 351.724 187.463 353.091 186.324" stroke="#333333" stroke-width="3" stroke-linecap="round"/>
<path d="M348.336 189.493C349.891 189.493 350.793 189.147 352.105 188.12C353.104 187.337 353.079 186.341 353.725 185.373" stroke="#333333" stroke-width="3" stroke-linecap="round"/>
<path d="M277.336 185.056C276.834 183.488 276.506 181.242 276.931 179.685C277.17 178.81 278.239 178.616 278.921 178.329C281.171 177.382 283.675 182.642 284.309 184.386C284.975 186.218 287.359 188.859 289.381 188.859C291.619 188.859 293.184 188.194 293.184 185.69" stroke="#333333" stroke-width="3" stroke-linecap="round"/>
<path d="M276.702 184.739C275.089 184.94 281.1 191.599 281.615 192.047C283.896 194.03 286.162 195.677 289.064 196.713C292.652 197.994 297.149 196.666 297.956 192.628C298.271 191.055 298.89 186.305 298.89 187.908" stroke="#333333" stroke-width="3" stroke-linecap="round"/>
<path d="M312.202 218.337C312.202 215.288 315.252 214.34 317.978 213.829C321.506 213.168 324.505 210.666 327.258 208.511C330.335 206.103 331.184 202.724 331.995 199.037C332.37 197.331 332.689 195.579 332.981 193.86C333.049 193.462 333.122 189.112 333.122 191.078" stroke="#333333" stroke-width="3" stroke-linecap="round"/>
<path d="M311.885 217.703C311.885 220.724 317.272 220.609 319.316 220.098C324.273 218.859 328.893 215.285 332.629 211.998C334.977 209.932 336.552 205.938 337.718 203.088C338.972 200.022 340.9 196.731 341.609 193.508C341.711 193.046 341.997 190.222 341.997 192.029" stroke="#333333" stroke-width="3" stroke-linecap="round"/>
<path d="M271.63 179.033C270.254 179.119 270.552 180.694 271.173 181.534C272.243 182.984 274.347 184.723 276.209 185.02C277.522 185.231 277.464 184.867 276.702 184.105" stroke="#333333" stroke-width="3" stroke-linecap="round"/>
<path d="M283.675 175.23C285.549 175.23 287.276 175.892 288.324 177.625C288.92 178.611 289.366 180.343 288.694 181.393C288.116 182.296 287.485 182.74 286.845 181.886" stroke="#333333" stroke-width="3" stroke-linecap="round"/>
<path d="M285.577 174.279C285.577 169.908 285.624 166.355 282.654 162.868C278.27 157.722 269.529 162.594 264.675 164.911C260.936 166.695 257.428 169.823 255.448 173.486C253.693 176.732 251.716 180.265 251.662 184.105C251.606 187.979 251.565 191.039 254.197 194.177C256.423 196.831 259.942 197.541 263.337 197.312C265.208 197.186 268.952 195.606 269.852 193.737C271.174 190.992 269.571 187.421 267.51 185.461C265.841 183.873 263.426 182.054 261.171 181.322C260.285 181.035 259.101 180.104 260.537 181.252" stroke="#333333" stroke-width="3" stroke-linecap="round"/>
<path d="M266.559 185.373C267.249 185.286 268.374 183.207 268.619 182.784C270.038 180.337 269.935 178.587 268.144 176.498" stroke="#333333" stroke-width="3" stroke-linecap="round"/>
<path d="M255.465 198.685C252.026 198.581 246.33 197.934 245.199 193.913C244.513 191.476 244.688 188.695 244.688 186.183C244.688 179.943 246.529 172.121 251.521 168.08C255.341 164.988 260.961 162.642 265.608 161.213C266.592 160.91 279.057 157.251 278.287 160.332" stroke="#333333" stroke-width="3" stroke-linecap="round"/>
<path d="M291.282 215.801C288.169 216.969 286.567 221.677 286.07 224.659C285.612 227.407 286.042 229.917 286.457 232.601C287.369 238.486 293.096 243.12 297.974 245.948C302.28 248.445 307.43 249.083 312.343 249.083C316.987 249.083 321.518 248.774 326.131 248.467C326.668 248.431 329.963 248.351 328.684 247.498" stroke="#333333" stroke-width="3" stroke-linecap="round"/>
<path d="M306.814 217.069C306.254 218.561 306.18 217.637 306.18 216.717C306.18 212.423 307.162 208.885 312.167 209.127C314.153 209.224 316.299 211.053 316.71 213.019C316.899 213.921 316.957 216.118 316.957 213.9" stroke="#333333" stroke-width="3" stroke-linecap="round"/>
<path d="M308.082 222.458C308.082 226.369 311.937 230.21 315.97 229.202C318.206 228.643 318.475 225.105 318.541 223.268C318.574 222.376 318.726 221.772 318.224 222.775" stroke="#333333" stroke-width="3" stroke-linecap="round"/>
<path d="M299.523 228.163C302.503 228.163 305.126 227.235 308.029 228.621C308.855 229.015 310.96 230.699 311.568 230.699" stroke="#333333" stroke-width="3" stroke-linecap="round"/>
<path d="M303.644 239.257C307.277 236.741 309.382 233.158 314.122 232.601C317.121 232.248 319.38 232.347 322.275 233.235C325.782 234.309 327.365 238.292 328.05 241.546C328.202 242.267 328.367 243.543 328.367 242.11" stroke="#333333" stroke-width="3" stroke-linecap="round"/>
<path d="M292.233 212.632C291.826 212.683 291.909 213.145 291.74 213.459C290.311 216.112 289.964 220.329 289.715 223.321C289.604 224.649 289.621 225.973 290.155 227.195C291.081 229.31 292.14 231.352 293.025 233.516C293.956 235.791 295.982 237.701 297.569 239.486C298.825 240.899 300.031 242.363 301.742 243.219C306.171 245.433 313.006 243.377 317.837 243.377C320.288 243.377 323.717 242.754 326.078 243.448C327.485 243.862 330.269 246.58 330.269 248.132C330.269 248.534 330.269 247.076 330.269 246.864" stroke="#333333" stroke-width="3" stroke-linecap="round"/>
<path d="M290.648 213.9C289.863 215.569 290.947 213.558 291.599 213.195C293.747 212.002 296.068 212.357 298.361 212.878C299.636 213.168 300.703 214.145 302.059 214.217C302.425 214.236 303.884 214.217 303.644 214.217" stroke="#333333" stroke-width="3" stroke-linecap="round"/>
<path d="M316.323 105.814C315.516 105.814 314.632 105.66 313.945 106.166C313.165 106.742 312.602 108.175 313.857 108.42C316.205 108.88 318.13 106.732 315.407 105.673C314.664 105.384 313.405 106.03 314.738 105.497" stroke="#333333" stroke-width="3" stroke-linecap="round"/>
<path d="M344.216 107.082C342.937 107.242 345.138 110.916 347.051 110.533C349.184 110.107 345.609 106.999 344.867 106.659C343.672 106.111 341.053 106.767 343.582 107.399" stroke="#333333" stroke-width="3" stroke-linecap="round"/>
<path d="M338.51 92.1845C338.51 90.4087 342.327 89.3318 343.582 89.3318C344.873 89.3318 345.479 89.6107 346.364 90.5292C346.714 90.8927 347.633 92.6405 348.019 91.8675" stroke="#333333" stroke-width="3" stroke-linecap="round"/>
<path d="M305.546 95.3542C304.794 93.0044 304.802 89.8208 307.289 88.7155C307.916 88.4368 311.769 88.4973 311.251 89.0149" stroke="#333333" stroke-width="3" stroke-linecap="round"/>
<path d="M315.055 129.27C314.354 126.409 312.933 123.676 313.54 120.641C313.941 118.637 315.635 118.004 317.273 117.154C320.167 115.654 323.011 114.224 326.254 115.887C327.598 116.575 329.283 118.595 330.762 118.792C333.919 119.213 336.358 115.079 339.144 116.591C341.245 117.732 342.511 120.448 342.93 122.754C343.707 127.028 342.948 130.844 338.968 133.073C336.981 134.186 334.683 135.114 332.505 135.767C329.519 136.663 326.803 135.715 323.789 135.362C321.509 135.096 320.418 134.281 318.999 132.862C318.176 132.038 318.053 130.784 317.08 130.185C316.361 129.743 315.876 129.04 315.231 128.512C314.533 127.941 314.686 128.145 315.689 128.002" stroke="#333333" stroke-width="3" stroke-linecap="round"/>
<path d="M314.738 128.953C314.831 128.533 315.718 127.759 316.111 127.579C318.913 126.298 321.273 125.466 324.317 125.466C326.16 125.466 327.915 125.692 328.984 127.403C329.267 127.856 330.299 130.508 330.586 130.22" stroke="#333333" stroke-width="3" stroke-linecap="round"/>
<path d="M329.318 128.319C330.68 127.109 333.381 126.427 335.165 126.751C336.978 127.081 337.94 129.016 339.144 130.22" stroke="#333333" stroke-width="3" stroke-linecap="round"/>
<path d="M294.135 73.1665C294.243 74.2497 295.469 75.3966 295.966 76.2658C296.468 77.1422 299.109 83.0897 299.84 82.3586" stroke="#333333" stroke-width="3" stroke-linecap="round"/>
<path d="M295.403 73.4835C294.957 73.4835 295.841 73.2789 295.966 73.237C297.765 72.6375 299.127 69.8846 299.84 68.2712C299.954 68.0132 300.025 67.0324 300.228 66.792C300.454 66.5232 302.532 67.1112 302.763 67.1442C304.958 67.4577 307.094 67.7781 309.314 67.7781C315.425 67.7781 321.283 65.6342 327.346 65.5594C329.271 65.5356 331.197 65.5594 333.122 65.5594" stroke="#333333" stroke-width="3" stroke-linecap="round"/>
<path d="M332.805 66.1933C333.882 69.1839 335.743 71.1853 338.44 72.7791C339.088 73.1624 339.774 73.4815 340.447 73.8181C341.549 74.3687 343.168 74.3279 344.128 74.9451C344.788 75.3698 345.976 78.4088 346.118 79.1889C346.527 81.4432 348.339 83.9662 349.358 85.9861C350.412 88.0766 351.505 90.1513 352.633 92.2021C353.674 94.0956 354.159 96.2527 354.676 98.3477C355.577 102.004 356.457 105.897 356.894 109.618" stroke="#333333" stroke-width="3" stroke-linecap="round"/>
<path d="M313.153 164.453C313.153 167.774 312.836 171.094 312.836 174.402C312.836 174.684 312.654 175.903 312.907 176.11C313.652 176.72 315.331 176.12 316.323 176.885C317.617 177.883 317.274 179.766 317.274 181.217C317.274 182.374 318.964 181.886 319.827 181.886C324.572 181.886 329.204 182.52 333.932 182.52C335.523 182.52 337.075 182.657 338.634 182.995C339.318 183.144 340.193 183.753 340.87 183.753C341.247 183.753 341.038 181.237 341.046 181.006C341.104 179.231 342.857 178.739 344.286 178.153C345.557 177.632 347.184 177.432 348.548 177.308C351.549 177.035 350.77 175.302 351.347 172.993C351.619 171.906 351.877 170.844 352.21 169.771C352.505 168.822 353.078 167.939 351.823 167.939" stroke="#333333" stroke-width="3" stroke-linecap="round"/>
<path d="M120 125.409C115.5 121.909 85.5 113.909 75.5 110.409C72.5 117.575 65.5 130.609 61.5 125.409C56.5 118.909 47.5 129.909 45.5 131.909C43.5 133.909 50.5 144.909 51.5 149.909C52.5 154.909 61.5 167.409 66.5 170.409C71.5 173.409 75.5 165.409 83.5 162.909C91.5 160.409 91 160.409 98.5 167.409C106 174.409 120 208.909 124 209.909C128 210.909 144.5 205.909 144 202.909C143.5 199.909 132.5 162.409 131 156.909C129.5 151.409 129.5 138.409 128.5 131.909C127.5 125.409 124.5 128.909 120 125.409Z" fill="white"/>
<path d="M95.5 123.409C86.3 120.609 77.6667 110.575 74.5 105.909C76.6667 105.242 82.1 103.509 86.5 101.909C92 99.9086 86.5 92.4086 85 89.9086C83.5 87.4086 85.5 74.4086 86.5 69.9086C87.5 65.4086 97.5 58.4086 105.5 58.4086C113.5 58.4086 111 65.4086 115.5 66.9086C120 68.4086 132 72.4086 138 72.4086C144 72.4086 143.5 66.9086 147 66.9086C150.5 66.9086 143.5 80.4086 162.5 86.9086C181.5 93.4086 184.5 89.4086 189.5 89.4086C194.5 89.4086 192 92.4086 192 96.4086C192 100.409 190.5 103.409 172 105.909C153.5 108.409 150.5 105.909 145.5 106.409C140.5 106.909 138.5 113.409 147 114.909C155.5 116.409 149.5 123.409 143.5 126.409C137.5 129.409 136.5 127.909 129 128.909C121.5 129.909 107 126.909 95.5 123.409Z" fill="white"/>
<path d="M76.2285 110.154C77.7344 111.52 79.5332 112.525 81.1289 113.784C82.0693 114.526 82.983 115.263 84.0127 115.871C87.0416 117.661 90.3874 119.03 93.6119 120.459C97.7785 122.306 101.921 123.982 106.317 125.219C109.838 126.209 113.507 126.325 117.065 127.074C119.196 127.522 121.493 127.051 123.599 127.578" stroke="#006FEE" stroke-width="5" stroke-linecap="round"/>
<path d="M82.5811 104.891C82.6144 105.191 82.823 105.213 83.0449 105.355C83.9971 105.961 84.8818 106.664 85.848 107.25C87.6008 108.313 89.5393 109.096 91.3736 110.013C92.8996 110.776 95.0322 110.962 96.3748 111.969" stroke="#006FEE" stroke-width="5" stroke-linecap="round"/>
<path d="M118.518 106.887C123.433 106.887 128.343 108.624 133.249 107.704C134.939 107.387 136.599 107.043 138.26 106.666C138.628 106.582 140.828 105.966 140.66 105.798" stroke="#006FEE" stroke-width="5" stroke-linecap="round"/>
<path d="M113.073 99.083C113.12 99.5099 113.677 99.4971 114.01 99.5468C116.565 99.9273 119.205 100.069 121.784 100.172C125.23 100.31 128.868 100.741 132.311 100.495C134.494 100.339 136.685 100.386 138.855 100.071C140.571 99.8218 142.16 99.2892 143.816 98.8107C144.471 98.6216 145.122 98.3587 145.702 97.994C146.149 97.7121 146.459 97.7505 145.742 97.631" stroke="#006FEE" stroke-width="5" stroke-linecap="round"/>
<path d="M108.898 92.186C109.193 92.186 109.438 92.224 109.725 92.307C111.24 92.7457 112.739 92.912 114.313 92.912C117.321 92.912 120.313 92.8299 123.317 92.6398C128.078 92.3385 133.029 92.4469 137.645 90.9962C138.572 90.7048 139.591 90.2323 140.478 89.8266C141.286 89.4575 142.142 89.2117 142.959 88.8384C144.776 88.0085 146.283 86.4818 148.142 85.7933C148.419 85.6905 149.441 84.9088 148.646 85.1077" stroke="#006FEE" stroke-width="5" stroke-linecap="round"/>
<path d="M109.624 83.2927C119.587 83.2927 129.717 82.3746 139.359 79.6627C141.448 79.0754 143.308 78.3628 145.197 77.3134C145.585 77.0978 148.106 75.6432 146.649 75.8513" stroke="#006FEE" stroke-width="5" stroke-linecap="round"/>
<path d="M112.346 74.0363C112.927 74.501 114.171 74.4387 114.827 74.4598C116.571 74.5161 118.317 74.0106 119.969 73.4818C121.391 73.0267 125.637 71.8584 124.144 71.8584" stroke="#006FEE" stroke-width="5" stroke-linecap="round"/>
<path d="M107.809 60.787C109.592 62.926 111.602 65.1989 113.788 66.9478C114.353 67.3995 115.255 67.6839 115.976 67.6839" stroke="#006FEE" stroke-width="5" stroke-linecap="round"/>
<path d="M137.574 116.507C135.951 117.366 134.529 119.645 134.348 121.407C134.29 121.969 134.226 125.119 135.215 124.13" stroke="#006FEE" stroke-width="5" stroke-linecap="round"/>
<path d="M128.863 115.055C126.93 116.393 124.97 120.881 126.14 123.222" stroke="#006FEE" stroke-width="5" stroke-linecap="round"/>
<path d="M120.877 111.969C117.442 113.054 115.679 115.443 115.18 118.937C115.065 119.744 115.069 120.554 115.069 121.367C115.069 121.994 115.01 122.052 115.613 121.952" stroke="#006FEE" stroke-width="5" stroke-linecap="round"/>
<path d="M114.161 107.795C111.358 109.228 109.468 110.866 108.495 113.825C108.346 114.278 107.959 115.663 108.535 114.51" stroke="#006FEE" stroke-width="5" stroke-linecap="round"/>
<path d="M110.713 101.805C106.883 102.41 104.04 104.731 102.011 107.976C101.771 108.36 100.799 110.727 101.638 110.517" stroke="#006FEE" stroke-width="5" stroke-linecap="round"/>
<path d="M107.628 95.6345C103.341 96.4618 99.9043 97.8756 97.3931 101.503C96.9999 102.071 96.6259 102.6 96.4755 103.288C96.3815 103.717 95.9504 105.538 96.5562 104.528" stroke="#006FEE" stroke-width="5" stroke-linecap="round"/>
<path d="M105.268 89.8266C100.654 89.4848 96.4669 91.5719 93.118 94.6564C92.8618 94.8924 90.5517 97.6234 91.2929 97.994" stroke="#006FEE" stroke-width="5" stroke-linecap="round"/>
<path d="M106.539 82.2037C101.853 80.7042 96.7691 80.5467 92.0895 82.0323C90.6211 82.4984 89.1825 82.9699 87.9655 83.938C87.5714 84.2515 87.0658 84.6674 87.8445 84.2002" stroke="#006FEE" stroke-width="5" stroke-linecap="round"/>
<path d="M106.357 82.0222C106.765 80.3369 107.469 78.7619 108.132 77.1621C108.867 75.3857 109.598 73.5681 110.804 72.05C111.354 71.3569 111.924 70.7145 112.598 70.1442C112.911 69.8796 113.306 69.7065 113.435 69.3174" stroke="#006FEE" stroke-width="5" stroke-linecap="round"/>
<path d="M88.752 74.3993C92.5606 72.3892 98.1918 70.5693 102.505 72.2214C103.355 72.5469 104.163 72.7837 104.915 73.3103C105.241 73.5382 105.629 73.6345 105.954 73.8548C106.472 74.2063 106.288 74.1604 106.539 73.4918" stroke="#006FEE" stroke-width="5" stroke-linecap="round"/>
<path d="M99.0972 65.143C102.47 65.143 105.813 65.1013 108.535 67.3613C109.198 67.9119 110.01 69.8619 110.894 69.8619" stroke="#006FEE" stroke-width="5" stroke-linecap="round"/>
<path d="M183.856 92.549C182.521 94.4565 182.404 96.6341 182.404 98.8914C182.404 99.7765 182.258 101.442 183.493 101.442" stroke="#006FEE" stroke-width="5" stroke-linecap="round"/>
<path d="M177.141 92.7306C175.733 95.2792 175.08 98.3248 174.701 101.19C174.574 102.145 174.452 102.855 174.963 103.62" stroke="#006FEE" stroke-width="5" stroke-linecap="round"/>
<path d="M171.333 91.6416C169.09 94.6323 167.143 97.926 166.614 101.684C166.482 102.621 166.36 103.611 166.453 104.558C166.538 105.433 166.758 104.912 166.977 104.528" stroke="#006FEE" stroke-width="5" stroke-linecap="round"/>
<path d="M165.707 90.1896C162.663 92.94 161.043 96.3767 160.988 100.454C160.975 101.373 160.95 102.309 160.998 103.227C161.036 103.949 161.146 103.902 161.714 103.983" stroke="#006FEE" stroke-width="5" stroke-linecap="round"/>
<path d="M159.717 87.8301C157.284 89.9935 155.668 92.9156 155.18 96.1387C154.973 97.5054 154.505 100.709 155.724 101.624" stroke="#006FEE" stroke-width="5" stroke-linecap="round"/>
<path d="M44.6288 122.948C44.6288 120.653 42.9358 118.532 42.0855 116.449C41.0535 113.921 40.5758 111.182 38.9205 108.974C38.4488 108.346 36.3682 105.052 38.1999 106.883C39.7255 108.409 41.209 109.977 42.7354 111.504C43.7554 112.524 44.5821 113.642 45.9004 114.301C47.5862 115.144 48.2603 110.597 48.3872 109.582C48.4156 109.355 48.4728 105.937 49.0936 106.332C51.3287 107.755 52.7633 111.548 53.9259 113.807C54.6658 115.244 55.4487 116.696 56.2714 118.088C56.7521 118.902 56.286 118.251 55.8192 117.862" stroke="#333333" stroke-width="3" stroke-linecap="round"/>
<path d="M43.6114 125.237C43.1787 126.049 45.1295 124.041 45.4764 123.796C47.7702 122.18 50.2335 120.911 52.8944 120.024C53.8929 119.691 59.5825 118.637 57.6843 121.62C57.1079 122.526 55.7774 123.02 54.8584 123.457C53.5822 124.064 52.4452 124.872 51.2978 125.69C50.2056 126.467 47.8822 127.793 47.6948 129.293C47.2961 132.482 60.4518 126.522 61.6687 126" stroke="#333333" stroke-width="3" stroke-linecap="round"/>
<path d="M61.16 128.035C60.7365 128.096 61.5375 128.318 61.6121 128.346C62.5275 128.685 63.3278 129.547 63.9152 130.282C64.5234 131.042 65.6418 131.929 66.5009 132.359" stroke="#333333" stroke-width="3" stroke-linecap="round"/>
<path d="M67.2642 133.122C67.2642 131.506 67.7134 129.609 68.0837 128.035C68.3337 126.972 68.1033 125.928 68.2956 124.87C69.1102 120.39 71.1875 116.11 73.5235 112.125C76.188 107.58 81.2079 105.773 84.8129 102.348C85.6178 101.583 86.6069 100.882 87.4833 100.2C87.9727 99.8195 89.3997 99.0344 88.1192 100.059" stroke="#333333" stroke-width="3" stroke-linecap="round"/>
<path d="M46.6633 132.613C48.5324 135.313 49.79 138.414 51.4391 141.26C52.4789 143.055 53.1539 144.833 53.9258 146.728C55.0052 149.378 56.1404 151.941 56.9495 154.683C58.1311 158.687 60.6624 162.85 63.8306 165.549C66.3435 167.689 68.5538 168.982 71.8419 168.982C75.2907 168.982 77.8714 167.593 80.8282 165.93C84.6805 163.763 88.9593 161.223 91.934 157.905C95.1254 154.345 98.8691 151.092 101.683 147.223C103.642 144.529 105.09 141.677 106.671 138.759C107.092 137.983 107.702 135.523 107.702 137.445" stroke="#333333" stroke-width="3" stroke-linecap="round"/>
<path d="M127.5 126.909C126 129.909 125.47 133.02 126 135.909C126.712 139.795 126.166 142.675 127.5 146.409C128.5 154.409 129.439 161.574 131.736 168.996C134.763 178.775 138.051 188.556 142.023 197.99C142.831 199.909 143.317 202.018 144.057 203.981C144.881 206.165 145.38 208.522 145.852 210.805C146.293 212.943 146.8 215.087 147.109 217.248C147.237 218.143 147.422 219.491 147.632 217.813" stroke="#333333" stroke-width="3" stroke-linecap="round"/>
<path d="M92.697 157.029C94.1752 159.898 96.5505 162.249 97.9814 165.111C99.1995 167.547 100.855 169.76 102.093 172.175C103.509 174.936 104.981 177.58 106.77 180.116C109.629 184.17 112.814 188.323 115.078 192.748C117.43 197.345 120.559 201.494 123.273 205.86C125.849 210.004 127.497 214.7 128.868 219.339C129.372 221.044 130.409 222.654 130.79 224.369C131.026 225.431 131.356 226.641 131.864 227.605C132.938 229.646 135.141 223.174 135.453 222.476C136.085 221.061 136.425 219.702 136.753 218.209C136.834 217.838 136.86 216.435 137.332 216.33C137.808 216.224 140.054 219.359 140.624 219.693C142.466 220.772 143.856 222.467 145.739 223.409C146.283 223.681 148.447 225.954 147.632 223.917" stroke="#333333" stroke-width="3" stroke-linecap="round"/>
<path d="M121.182 207.132C124.827 204.653 128.37 202.122 132.457 200.378C134.123 199.667 136.072 199.409 137.855 199.191C139.477 198.993 142.62 198.231 139.861 200.462C136.537 203.152 132.074 205.682 129.617 209.265C129.308 209.715 128.226 211.283 129.391 211.526C130.374 211.731 131.857 210.951 132.726 210.65C134.744 209.95 136.74 209.185 138.787 208.573C140.438 208.079 143.817 207.386 143.817 207.386" stroke="#333333" stroke-width="3" stroke-linecap="round"/>
<path d="M134.153 114.047C134.25 113.61 134.909 113.327 135.255 113.1C136.703 112.153 138.227 111.051 139.479 109.851C140.786 108.599 142.155 107.516 143.308 106.106C144.671 104.441 146.541 102.634 147.392 100.666C148.998 96.9532 150.32 92.6299 150.938 88.614C151.561 84.5643 151.867 80.2093 150.557 76.279C150.033 74.7061 149.298 73.1292 148.96 71.5174C148.715 70.3456 148.395 68.8525 148.395 71.0653" stroke="#333333" stroke-width="3" stroke-linecap="round"/>
<path d="M151.447 78.6952C151.447 79.2965 151.84 79.3623 152.309 79.6701C154.229 80.9299 155.844 82.5984 157.65 84.0078C161.709 87.1756 166.287 89.173 171.285 90.4226C175.247 91.4131 179.175 91.9017 183.266 91.6377C183.95 91.5936 190.359 91.037 190.359 90.6486" stroke="#333333" stroke-width="3" stroke-linecap="round"/>
<path d="M148.904 100.313C151.961 101.932 155.038 103.592 158.427 104.439C162.508 105.459 166.594 105.071 170.72 104.693C177.512 104.071 184.297 102.331 190.614 99.8045" stroke="#333333" stroke-width="3" stroke-linecap="round"/>
<path d="M191.123 89.377C191.123 91.8214 191.144 94.2641 191.433 96.696C191.694 98.8824 192.883 100.583 193.355 102.659C193.73 104.309 195.019 103.384 196.322 103.111C197.189 102.929 200.334 102.746 200.787 101.839" stroke="#333333" stroke-width="3" stroke-linecap="round"/>
<path d="M190.868 89.377C192.488 89.0344 195.554 87.5722 197.17 88.2184C198.206 88.6327 198.089 91.7704 198.187 92.6833C198.366 94.3446 198.429 96.0253 198.809 97.6568C198.913 98.103 199.967 102.38 200.278 100.822" stroke="#333333" stroke-width="3" stroke-linecap="round"/>
<path d="M199.007 90.3943C201.488 90.3943 204.167 90.0892 206.58 89.5748C208.309 89.2064 210.428 88.1336 212.204 88.1336C212.904 88.1336 211.188 89.8925 211.087 89.9987C210.015 91.1285 208.802 91.854 207.47 92.6409C206.907 92.9736 206 93.3524 205.591 93.8984C205.381 94.178 206.27 93.7327 206.608 93.6441C207.79 93.3343 208.941 92.9422 210.112 92.5985C211.437 92.2098 212.551 92.0372 213.701 91.2703C215.166 90.2938 214.353 92.7739 213.715 93.305C210.866 95.6796 207.073 96.5572 203.641 97.6427C202.131 98.1205 200.666 98.7654 199.134 99.1687C197.84 99.5091 200.359 98.5948 200.533 98.5329" stroke="#333333" stroke-width="3" stroke-linecap="round"/>
<path d="M107.702 82.2558C106.981 82.2558 107.216 82.8193 107.18 83.4003C106.954 87.0127 107.227 89.7434 108.338 93.1637C109.694 97.3355 112.362 100.612 114.937 104.114C116.355 106.043 117.856 107.62 119.91 108.904C124.327 111.665 129.798 113.738 134.803 115.064C137.623 115.811 140.378 116.51 143.308 116.59C144.413 116.621 147.72 116.845 146.615 116.845" stroke="#333333" stroke-width="3" stroke-linecap="round"/>
<path d="M113.552 51.4819C113.511 51.8504 113.213 52.2195 112.987 52.4993C111.76 54.0145 110.217 55.3403 108.833 56.7098C106.732 58.788 104.12 60.1533 101.598 61.6551C98.938 63.2394 96.2695 64.8902 94.0251 67.0525C92.1007 68.9065 89.9733 70.4228 88.5146 72.7043C83.2154 80.9929 85.0579 91.3997 88.6842 99.861C89.4761 101.709 90.4053 103.474 91.4253 105.202C92.7743 107.488 94.9291 108.419 97.0205 109.893C100.742 112.515 103.634 116.242 107.222 119.049C110.427 121.556 114.637 123.435 118.525 124.672C120.425 125.277 122.305 126.147 124.29 126.453C126.976 126.866 129.692 126.763 132.401 126.763C133.578 126.763 134.755 126.763 135.933 126.763C136.42 126.763 136.695 126.847 136.187 126.509" stroke="#333333" stroke-width="3" stroke-linecap="round"/>
<path d="M148.141 115.827C145.278 118.854 143.309 124.038 143.309 128.233C143.309 128.791 143.218 129.702 143.619 130.154C144.559 131.215 147.857 131.216 149.243 131.327C150.556 131.432 150.18 131.168 150.741 129.957C152.638 125.858 154.263 121.64 156.279 117.608C156.983 116.2 152.957 116.677 151.998 116.59C151.39 116.535 147.232 115.841 148.904 116.845" stroke="#333333" stroke-width="3" stroke-linecap="round"/>
<path d="M135.933 127.272C137.546 127.272 142.378 127.018 140.765 127.018" stroke="#333333" stroke-width="3" stroke-linecap="round"/>
<path d="M156.279 119.388C158.825 119.529 161.294 120.568 163.853 120.66C164.602 120.686 168.214 120.484 168.685 121.225C169.017 121.746 163.852 123.312 163.287 123.401C163.054 123.437 161.455 123.479 162.298 123.825C163.406 124.278 164.573 124.552 165.689 124.983C166.696 125.372 167.685 125.795 168.685 126.198C168.843 126.262 170.337 126.57 170.154 126.763C168.612 128.396 165.202 128.134 163.203 128.544C161.006 128.994 158.681 128.798 156.449 128.798C155.29 128.798 154.132 128.798 152.973 128.798C152.101 128.798 153.554 128.584 153.736 128.544" stroke="#333333" stroke-width="3" stroke-linecap="round"/>
<path d="M130.884 50.1138C128.172 50.7163 135.299 55.4132 134.135 50.5919C133.724 48.8911 131.449 49.157 130.437 50.05C128.2 52.0244 133.752 53.0543 133.752 50.9744" stroke="#333333" stroke-width="3.38394" stroke-linecap="round"/>
<path d="M106.786 38.9256C108.766 39.5591 111.022 39.2012 113.065 39.2124C113.392 39.2142 117.131 39.0905 115.392 39.7862" stroke="#333333" stroke-width="3.38394" stroke-linecap="round"/>
<path d="M144.654 50.1138C144.581 51.3625 144.427 51.8307 145.961 52.4407C147.781 53.1642 149.334 50.8398 147.475 50.0341C146.788 49.7366 144.515 49.4302 144.415 50.576C144.28 52.1267 145.692 51.8716 146.662 51.5482" stroke="#333333" stroke-width="3.38394" stroke-linecap="round"/>
<path d="M133.179 65.6052C130.867 65.6052 128.491 64.8507 128.031 62.3221C127.618 60.048 129.457 58.942 131.171 57.8595C133.758 56.2257 137.51 56.0359 140.462 55.7079C143.632 55.3557 146.945 55.1271 150.137 55.3095C152.798 55.4616 156.596 57.2676 154.759 60.3777C153.558 62.4092 151.215 63.6417 149.085 64.4577C145.15 65.9646 141.042 65.5662 136.908 65.6052C135.416 65.6193 133.954 65.8921 132.462 65.8921C131.173 65.8921 130.808 65.9409 132.318 65.6052" stroke="#333333" stroke-width="3.38394" stroke-linecap="round"/>
<path d="M140.638 60.1545C140.02 60.3089 140.222 61.9247 141.403 61.3977C142.148 61.0651 142.869 60.2277 141.626 60.1545C141.564 60.1509 140.785 60.1545 141.211 60.1545" stroke="#333333" stroke-width="3.38394" stroke-linecap="round"/>
<path d="M147.81 60.4414C147.904 61.9561 149.312 59.9054 148.67 59.8676C147.946 59.8251 147.523 59.9305 147.523 60.7283" stroke="#333333" stroke-width="3.38394" stroke-linecap="round"/>
<path d="M133.179 67.3265C130.964 70.0948 137.613 71.6367 139.203 71.5819C142.69 71.4616 144.441 68.9737 146.662 66.7527" stroke="#333333" stroke-width="3.38394" stroke-linecap="round"/>
<path d="M117.114 56.1382C117.114 53.0643 116.408 62.2491 116.237 65.3183C116.135 67.1551 115.697 68.2031 117.305 69.4781C119.914 71.5472 124.005 71.3428 127.154 71.3428" stroke="#333333" stroke-width="3.38394" stroke-linecap="round"/>
<path d="M116.827 38.6387C115.955 34.078 118.313 31.3534 122.532 30.0642C125.058 29.2926 127.309 28.6543 129.449 30.3192" stroke="#333333" stroke-width="3.38394" stroke-linecap="round"/>
<path d="M124.286 35.483C128.009 35.483 133.033 36.0608 135.984 33.2836C137.45 31.9034 138.591 30.0086 138.343 28.0242" stroke="#333333" stroke-width="3.38394" stroke-linecap="round"/>
<path d="M140.638 35.7699C143.795 32.4432 148.519 28.7972 153.26 29.7454" stroke="#333333" stroke-width="3.38394" stroke-linecap="round"/>
<path d="M149.244 35.483C151.519 35.0481 156.99 33.5145 156.99 30.3192" stroke="#333333" stroke-width="3.38394" stroke-linecap="round"/>
<path d="M153.26 40.0731C154.162 40.0731 165.596 39.2495 165.596 38.3518" stroke="#333333" stroke-width="3.38394" stroke-linecap="round"/>
<path d="M164.736 38.6387C164.837 34.3925 167.106 30.4102 167.732 26.2073C167.893 25.1247 167.512 23.4504 167.907 22.4619C168.004 22.2211 168.253 22.8602 168.353 23.0994C168.809 24.1846 169.237 25.2886 169.581 26.4145C171.291 32.0205 172.194 43.8025 172.194 43.8025" stroke="#333333" stroke-width="3.38394" stroke-linecap="round"/>
<path d="M105.638 38.3518C105.638 34.7817 105.638 31.2117 105.638 27.6417C105.638 26.4677 106.201 23.4878 105.033 25.8248C103.725 28.4411 102.317 31.8794 101.813 34.7658C101.348 37.4305 101.518 40.1509 101.319 42.8303C101.265 43.568 100.546 45.3399 101.463 45.8106C103.962 47.0939 107.06 47.2928 109.782 47.8188C111.96 48.2394 114.105 48.3925 116.317 48.3925C116.8 48.3925 119.467 48.7184 118.548 48.1056" stroke="#333333" stroke-width="3.38394" stroke-linecap="round"/>
<path d="M124.286 41.7943C125.29 42.6867 127.295 42.7416 128.493 43.165C128.982 43.3377 132.053 44.369 131.171 44.6631" stroke="#333333" stroke-width="3.38394" stroke-linecap="round"/>
<path d="M141.498 45.5238C143.181 45.5238 144.822 44.1269 146.152 43.2925C146.442 43.1105 149.707 41.3318 148.67 42.3681" stroke="#333333" stroke-width="3.38394" stroke-linecap="round"/>
<path d="M153.26 45.5237C157.892 45.5237 162.516 45.4466 167.142 45.2209C168.485 45.1554 169.816 44.9038 171.047 44.3762" stroke="#333333" stroke-width="3.38394" stroke-linecap="round"/>
<path d="M160.477 146.53C160.713 148.421 165.93 148.982 167.029 149.151" stroke="#333333" stroke-width="3" stroke-linecap="round"/>
<path d="M179.26 150.461C182.159 150.461 185.011 150.66 187.996 150.461" stroke="#333333" stroke-width="3" stroke-linecap="round"/>
<path d="M198.479 149.588C201.208 149.444 203.864 147.987 206.342 146.967" stroke="#333333" stroke-width="3" stroke-linecap="round"/>
<path d="M217.262 143.472C219.231 143.394 221.166 142.514 222.941 141.725" stroke="#333333" stroke-width="3" stroke-linecap="round"/>
<path d="M234.298 140.852H239.54" stroke="#333333" stroke-width="3" stroke-linecap="round"/>
<path d="M2.35181 68.3411C5.71847 68.3411 9.04987 68.9103 12.3984 69.2147" stroke="#333333" stroke-width="3" stroke-linecap="round"/>
<path d="M21.5713 71.8355C21.6986 72.3449 22.5544 72.4595 22.9788 72.7092C24.9097 73.845 26.7399 74.9034 28.5602 76.2036" stroke="#333333" stroke-width="3" stroke-linecap="round"/>
<path d="M33.802 83.1926C33.9541 84.5619 38.192 87.199 39.0437 87.9975" stroke="#333333" stroke-width="3" stroke-linecap="round"/>
<path d="M46.9063 92.8024C46.6248 94.7732 53.1339 97.6959 54.3321 98.481" stroke="#333333" stroke-width="3" stroke-linecap="round"/>
<path d="M255.2 55.9482C251.744 54.3217 247.364 59.2875 245.827 61.9042C243.254 66.2863 251.782 65.8954 253.999 65.5055C256.698 65.031 263.248 63.2544 262.587 59.4109C261.942 55.6578 257.37 55.6468 254.415 55.7635C253.779 55.7886 248.266 55.8055 250.213 56.7792" stroke="#F5A524" stroke-width="3" stroke-linecap="round"/>
<path d="M261.848 58.4413C263.61 60.2032 264.543 65.6416 262.864 67.1676C261.086 68.784 257.915 69.6514 255.615 70.1687C252.968 70.7642 250.44 70.2761 247.79 70.0994C245.679 69.9587 246.535 69.8609 248.136 69.6608" stroke="#F5A524" stroke-width="3" stroke-linecap="round"/>
<path d="M241.487 97.5016C240.147 96.9803 238.695 98.3272 239.363 99.8101C240.591 102.531 247.694 100.71 248.044 97.9171C248.382 95.2088 245.877 94.5929 243.773 94.5929C241.878 94.5929 238.158 94.5818 239.41 97.0861" stroke="#F5A524" stroke-width="3" stroke-linecap="round"/>
<path d="M237.332 100.41C237.332 101.639 237.227 105.086 238.809 105.374C241.752 105.909 245.282 105.279 248.136 104.566" stroke="#F5A524" stroke-width="3" stroke-linecap="round"/>
<path d="M233.592 35.1714C233.054 35.2386 233 36.3929 233.177 36.8335C233.746 38.2577 239.445 39.9497 240.402 38.034C241.764 35.3104 237.83 33.2656 235.808 32.7013C234.55 32.3502 229.153 31.2875 231.93 33.5093" stroke="#F5A524" stroke-width="3" stroke-linecap="round"/>
<path d="M240.241 37.6646C240.241 39.4135 239.443 42.9088 237.517 43.459C235.946 43.9077 233.543 43.4175 232.022 43.0666C230.721 42.7663 229.813 42.3022 229.044 41.1967C228.558 40.4973 228.546 39.8619 228.19 40.5734" stroke="#F5A524" stroke-width="3" stroke-linecap="round"/>
<path d="M223.204 49.2996C223.204 49.7612 223.127 50.302 223.227 50.754C223.545 52.1844 227.748 51.668 228.421 50.6847C230.011 48.3616 226.693 47.6836 225.12 47.6836C222.276 47.6836 222.815 48.8031 224.035 50.5462" stroke="#F5A524" stroke-width="3" stroke-linecap="round"/>
<path d="M51.1041 21.7113C47.0491 17.1494 53.2678 7.495 58.825 7.28918C63.2926 7.12371 64.8988 10.3263 63.7052 14.3545C62.735 17.6291 62.0054 27.6112 57.0041 27.6112C56.1006 27.6112 53.1374 26.7775 53.0708 25.6446C53.0119 24.6445 53.6189 22.4205 52.4152 23.0224" stroke="#333333" stroke-width="4" stroke-linecap="round"/>
<path d="M62.9041 20.4002C63.3057 16.7849 72.7373 13.8958 72.7373 19.7446" stroke="#333333" stroke-width="4" stroke-linecap="round"/>
<path d="M72.0483 28.2668C72.0483 24.2501 72.6733 21.0863 75.6539 18.1057C77.2766 16.483 81.7483 12.6779 83.5569 15.52C86.1619 19.6135 85.1088 24.3493 83.047 28.2668C81.785 30.6646 74.5324 33.7524 73.3594 30.2334" stroke="#333333" stroke-width="4" stroke-linecap="round"/>
<path d="M81.2594 13.8447C77.6062 13.8447 75.5131 11.8887 72.5916 9.72927C71.4111 8.85672 69.5403 8.60819 68.5126 7.58052C66.9219 5.98982 64.9405 5.18289 63.5596 7.94472" stroke="#333333" stroke-width="4" stroke-linecap="round"/>
<path d="M52.4152 9.91136C50.1838 9.63243 47.002 7.57811 44.6943 6.77929C42.8448 6.13908 42.5863 4.12092 40.6153 4.01142C38.2504 3.88003 38.2886 1.61628 36.0265 4.01142C34.6324 5.48748 33.4043 7.21995 33.4043 9.25581" stroke="#333333" stroke-width="4" stroke-linecap="round"/>
</svg>
