<svg width="176" height="32" viewBox="0 0 176 32" fill="none" xmlns="http://www.w3.org/2000/svg">
<rect x="118.636" y="12.5797" width="13.5319" height="18.8351" fill="#24DE85"/>
<ellipse cx="125.495" cy="5.63084" rx="6.67326" ry="4.57164" fill="#F5A524"/>
<path fill-rule="evenodd" clip-rule="evenodd" d="M95.1623 3.05176e-05C99.0494 3.05176e-05 102.44 0.657811 105.334 1.97337C108.257 3.26094 110.527 5.08033 112.144 7.43154C113.761 9.78275 114.57 12.5538 114.57 15.7447C114.57 18.9077 113.761 21.6788 112.144 24.058C110.527 26.4092 108.257 28.2426 105.334 29.5581C102.44 30.8457 99.0494 31.4895 95.1623 31.4895H78.2231V25.6061C79.7347 25.591 83.0678 25.4716 86.617 24.5238C90.6302 23.4521 95.6308 21.1242 98.1056 15.9364L92.0825 13.0632C90.8498 15.6472 88.1577 17.2052 84.8952 18.0765C82.1695 18.8044 79.5393 18.9151 78.2231 18.932V3.05176e-05H95.1623ZM161.902 0.367408C164.881 0.367408 167.417 0.962209 169.51 2.15181C171.602 3.30642 173.198 4.95087 174.298 7.08516C175.433 9.18445 176 11.6511 176 14.4852V31.4895H162.487V16.3745C162.487 14.6951 162.008 13.4005 161.051 12.4908C160.129 11.5812 158.816 11.1263 157.114 11.1263C155.908 11.1263 154.862 11.3712 153.975 11.8611C153.124 12.3159 152.468 12.9982 152.007 13.9079C151.545 14.7826 151.315 15.8497 151.315 17.1093V31.4895H137.802V12.1235V1.31209H150.198V6.92771C151.616 4.72345 153.337 3.079 155.358 1.99436C157.38 0.909726 159.561 0.367408 161.902 0.367408Z" fill="#24DE85"/>
<path fill-rule="evenodd" clip-rule="evenodd" d="M45.9713 0.51059V7.45947L51.7177 4.4666L57.4641 7.45947V0.51059H62.3602C65.3111 0.51059 67.6235 1.19636 69.2976 2.5679C70.9716 3.91145 71.8086 5.78682 71.8086 8.19401C71.8086 9.56555 71.4965 10.8531 70.8723 12.0567C70.2481 13.2603 69.2266 14.282 67.8079 15.1217L67.1624 15.3031C67.8557 15.4696 68.4965 15.6751 69.0848 15.9194C70.7021 16.5912 71.9079 17.5289 72.7024 18.7325C73.5252 19.9081 73.9367 21.3216 73.9367 22.9731C73.9367 24.6805 73.5394 26.22 72.745 27.5915C71.9789 28.9631 70.8014 30.0407 69.2124 30.8244C67.6235 31.6082 65.6374 32 63.254 32H38.1858V15.8355V0.51059H45.9713Z" fill="#006FEE"/>
<path d="M0 20.1528H11.1751C11.2889 20.6885 11.6159 21.1512 12.1562 21.5408C12.6964 21.9061 13.4357 22.1983 14.3741 22.4174C15.3125 22.6122 16.4357 22.7096 17.7437 22.7096C19.4498 22.7096 20.7721 22.5635 21.7105 22.2713C22.6773 21.9791 23.1607 21.5043 23.1607 20.8468C23.1607 20.4085 22.8905 20.0432 22.3503 19.751C21.81 19.4344 20.701 19.2274 19.0233 19.13L13.7343 18.8378C8.92873 18.57 5.4596 17.6933 3.32695 16.2079C1.19429 14.7225 0.12796 12.7622 0.12796 10.3271C0.12796 8.28164 0.81041 6.57707 2.17531 5.21341C3.54021 3.84975 5.44539 2.82701 7.89083 2.14518C10.3647 1.46335 13.2509 1.12244 16.5494 1.12244C19.7626 1.12244 22.6062 1.51205 25.0801 2.29128C27.5824 3.04617 29.5586 4.11761 31.0088 5.50563C32.4875 6.89363 33.2979 8.51298 33.4401 10.3637H22.2649C22.1796 9.92534 21.8953 9.5479 21.4119 9.23134C20.9569 8.91477 20.3029 8.67126 19.4498 8.5008C18.5968 8.33035 17.5589 8.24512 16.3362 8.24512C14.7722 8.24512 13.5353 8.37905 12.6253 8.64691C11.7438 8.91477 11.3031 9.35309 11.3031 9.96187C11.3031 10.3758 11.559 10.7289 12.0708 11.0211C12.6111 11.3133 13.6348 11.5082 15.1419 11.6056L21.1133 11.9343C24.2412 12.1048 26.772 12.5066 28.7056 13.1397C30.6392 13.7485 32.0467 14.6007 32.9282 15.6965C33.8382 16.7923 34.2931 18.1438 34.2931 19.751C34.2931 21.7721 33.5965 23.5376 32.2031 25.0473C30.8098 26.5571 28.8478 27.7381 26.317 28.5904C23.8147 29.4184 20.8858 29.8323 17.5304 29.8323C14.0613 29.8323 11.0187 29.4305 8.40267 28.6269C5.78661 27.8234 3.73926 26.691 2.26062 25.23C0.81041 23.7689 0.0568709 22.0765 0 20.1528Z" fill="#F5A524"/>
<rect x="11.8638" y="27.638" width="10.566" height="3.84018" fill="#F5A524"/>
<rect x="11.8638" y="0.0252838" width="10.566" height="3.84018" fill="#F5A524"/>
</svg>
